<?xml version="1.0" encoding="UTF-8"?>
<svg id="Layer_1" data-name="Layer 1" xmlns="http://www.w3.org/2000/svg" viewBox="0 0 125.71 39.02">
  <defs>
    <style>
      .cls-1 {
        fill: #1d1d1b;
        stroke-width: 0px;
      }
    </style>
  </defs>
  <path class="cls-1" d="m0,30.07l1.61-2.67c1.64-2.8,5.77-7.77,7.89-9.73,2.74-2.61,1.66-1.65,4.7-4.22.8-.69,1.68-1.28,2.52-1.93C23.8,6.5,31.55,3.13,39.91,1.31c1.05-.2,2.09-.47,3.16-.6l3.19-.44c2.15-.14,4.28-.32,6.47-.24,4.34.12,9.05.9,13.14,3.66,4.16,2.88,7.03,7.89,6.46,12.98-.42,3.8-2.68,6.92-5.49,9.5-1.86,1.67-3.85,3.12-6.32,3.8-2.97.85-6.26.11-8.38-2.08-4.47-4.55-.69-13.01,9.55-14.22,9.53-1.04,17.47,4.55,24.47,7.99,7.14,3.52,15.14,5.51,23.16,5.75,1.97.07,3.92-.06,5.74-.62,5.79-1.87,9.35-7.62,10.37-13.45l.3.03c-.67,6.41-4.32,12.39-10.23,14.63-1.97.72-4.08.96-6.15.99-8.3.03-16.59-1.78-24.15-5.21-7.25-3.29-14.62-8.37-23.16-7.31-2.01.27-4,.9-5.69,1.99-1.63,1.1-3.07,2.83-3.13,4.79-.08,1.93,1.48,3.52,3.58,3.97,3.66.85,7.83-2.63,10.16-5.46,2.99-3.66,3.24-7.56,1.28-11.24-3.05-5.65-9.17-7.59-15.61-7.85-2.05-.11-4.11.05-6.17.13l-3.07.34c-1.03.09-2.03.33-3.05.49-8.03,1.51-15.53,4.48-22.75,9.24-.84.59-1.73,1.13-2.54,1.76-2.94,2.26-1.85,1.36-4.79,3.91-.79.66-1.49,1.43-2.23,2.14-2.91,2.92-5.52,6.13-7.78,9.58l-.25-.16Z"/>
  <path class="cls-1" d="m4.18,32.06c5.86-10.18,17.52-16.88,26.84-17.05,6.51.01,12.8,3.41,14.7,9.85,2.67,9.16-5.81,15.73-13.2,13.83-5.72-1.45-6.75-7.44-3.96-10.61,2.03-2.33,5.9-2.52,8.02-.28l-.19.23c-2.68-2.14-7.34-.72-7.64,3.15-.36,3.36,2.46,5.92,6.75,5.45,3.36-.34,6.59-2.67,7.53-5.94,1.74-5.98-3.38-12.68-12.06-12.86-7.1-.16-18.63,4.58-26.55,14.41l-.23-.19Z"/>
</svg>