<?xml version="1.0" encoding="UTF-8"?>
<svg id="Layer_1" xmlns="http://www.w3.org/2000/svg" xmlns:xlink="http://www.w3.org/1999/xlink" viewBox="0 0 229.53 287.59">
  <defs>
    <style>
      .cls-1 {
        fill-rule: evenodd;
      }

      .cls-1, .cls-2, .cls-3 {
        fill: #5c3a1b;
      }

      .cls-4 {
        clip-path: url(#clippath-1);
      }

      .cls-5 {
        fill: url(#linear-gradient-2);
        opacity: .77;
      }

      .cls-6 {
        fill: none;
      }

      .cls-6, .cls-3 {
        clip-rule: evenodd;
      }

      .cls-7 {
        clip-path: url(#clippath-2);
      }

      .cls-8 {
        fill: url(#linear-gradient);
      }

      .cls-9 {
        clip-path: url(#clippath);
      }
    </style>
    <clipPath id="clippath">
      <path class="cls-6" d="M25.8,41.8C0,159.16,144.22,94.88,120.93,287.59,189.13,27.72,39.07,119.25,25.8,41.8"/>
    </clipPath>
    <linearGradient id="linear-gradient" x1="53.99" y1="200.98" x2="135.9" y2="113.52" gradientUnits="userSpaceOnUse">
      <stop offset="0" stop-color="#002223"/>
      <stop offset="1" stop-color="#18eaf1"/>
    </linearGradient>
    <clipPath id="clippath-1">
      <path class="cls-6" d="M203.74,41.8c25.8,117.36-118.42,53.08-95.13,245.79C40.41,27.72,190.46,119.25,203.74,41.8"/>
    </clipPath>
    <linearGradient id="linear-gradient-2" x1="126.61" y1="88.77" x2="149.02" y2="273.37" gradientUnits="userSpaceOnUse">
      <stop offset="0" stop-color="#ffce4b"/>
      <stop offset="1" stop-color="#c31656"/>
    </linearGradient>
    <clipPath id="clippath-2">
      <path class="cls-3" d="M114.77,0c20.58,0,37.27,16.69,37.27,37.27s-16.69,37.27-37.27,37.27-37.27-16.69-37.27-37.27S94.18,0,114.77,0"/>
    </clipPath>
  </defs>
  <g>
    <g class="cls-9">
      <rect class="cls-8" y="27.72" width="189.13" height="259.86"/>
    </g>
    <g class="cls-4">
      <rect class="cls-5" x="40.41" y="27.72" width="189.13" height="259.86"/>
    </g>
  </g>
  <g>
    <path class="cls-1" d="M114.77,0c20.58,0,37.27,16.69,37.27,37.27s-16.69,37.27-37.27,37.27-37.27-16.69-37.27-37.27S94.18,0,114.77,0"/>
    <g class="cls-7">
      <rect class="cls-2" x="77.5" width="74.54" height="74.54"/>
    </g>
  </g>
</svg>