<?xml version="1.0" encoding="UTF-8"?>
<svg id="Layer_1" data-name="Layer 1" xmlns="http://www.w3.org/2000/svg" xmlns:xlink="http://www.w3.org/1999/xlink" viewBox="0 0 843.42 388.88">
  <defs>
    <style>
      .cls-1 {
        fill-rule: evenodd;
      }

      .cls-1, .cls-2, .cls-3 {
        fill: #5c3a1b;
      }

      .cls-4 {
        fill: #0495a0;
      }

      .cls-5 {
        clip-path: url(#clippath-1);
      }

      .cls-6 {
        fill: url(#linear-gradient-2);
        opacity: .77;
      }

      .cls-7 {
        fill: none;
      }

      .cls-7, .cls-3 {
        clip-rule: evenodd;
      }

      .cls-8 {
        clip-path: url(#clippath-2);
      }

      .cls-9 {
        fill: url(#linear-gradient);
      }

      .cls-10 {
        fill: #5c3a15;
      }

      .cls-11 {
        clip-path: url(#clippath);
      }
    </style>
    <clipPath id="clippath">
      <path class="cls-7" d="M567.35,41.8c-25.8,117.36,118.42,53.08,95.13,245.79,68.2-259.86-81.85-168.34-95.13-245.79"/>
    </clipPath>
    <linearGradient id="linear-gradient" x1="595.55" y1="200.98" x2="677.45" y2="113.52" gradientUnits="userSpaceOnUse">
      <stop offset="0" stop-color="#002223"/>
      <stop offset="1" stop-color="#18eaf1"/>
    </linearGradient>
    <clipPath id="clippath-1">
      <path class="cls-7" d="M745.29,41.8c25.8,117.36-118.42,53.08-95.13,245.79-68.2-259.86,81.85-168.34,95.13-245.79"/>
    </clipPath>
    <linearGradient id="linear-gradient-2" x1="668.17" y1="88.77" x2="690.58" y2="273.37" gradientUnits="userSpaceOnUse">
      <stop offset="0" stop-color="#ffce4b"/>
      <stop offset="1" stop-color="#c31656"/>
    </linearGradient>
    <clipPath id="clippath-2">
      <path class="cls-3" d="M656.32,0c20.58,0,37.27,16.69,37.27,37.27s-16.69,37.27-37.27,37.27-37.27-16.69-37.27-37.27S635.74,0,656.32,0"/>
    </clipPath>
  </defs>
  <g>
    <path class="cls-4" d="M140.92,313.23v41.55h-5.42v-41.55h5.42Z"/>
    <path class="cls-4" d="M175.73,325.12c2.46,2.41,3.7,5.87,3.7,10.4v19.26h-5.37v-18.48c0-3.26-.82-5.75-2.44-7.48-1.63-1.73-3.86-2.59-6.68-2.59s-5.14.89-6.83,2.68c-1.69,1.79-2.53,4.39-2.53,7.81v18.06h-5.42v-32.67h5.42v4.65c1.07-1.67,2.53-2.96,4.38-3.88,1.85-.91,3.88-1.37,6.11-1.37,3.97,0,7.19,1.2,9.66,3.61Z"/>
    <path class="cls-4" d="M193.14,354.04c-1.99-.85-3.56-2.05-4.71-3.58-1.15-1.53-1.79-3.29-1.91-5.28h5.6c.16,1.63.92,2.96,2.29,4s3.17,1.55,5.4,1.55c2.07,0,3.7-.46,4.89-1.37s1.79-2.07,1.79-3.46-.64-2.49-1.91-3.19c-1.27-.7-3.24-1.38-5.9-2.06-2.42-.64-4.4-1.28-5.93-1.94-1.53-.66-2.84-1.63-3.93-2.92-1.09-1.29-1.64-2.99-1.64-5.1,0-1.67.5-3.2,1.49-4.59.99-1.39,2.4-2.49,4.23-3.31,1.83-.81,3.91-1.22,6.26-1.22,3.62,0,6.54.91,8.76,2.74s3.42,4.33,3.58,7.51h-5.42c-.12-1.71-.8-3.08-2.06-4.11-1.25-1.03-2.93-1.55-5.04-1.55-1.95,0-3.5.42-4.65,1.25-1.15.83-1.73,1.93-1.73,3.28,0,1.07.35,1.96,1.04,2.65.7.7,1.57,1.25,2.62,1.67,1.05.42,2.51.88,4.38,1.4,2.34.64,4.25,1.26,5.72,1.88,1.47.62,2.73,1.54,3.79,2.77,1.05,1.23,1.6,2.84,1.64,4.83,0,1.79-.5,3.4-1.49,4.83-.99,1.43-2.39,2.55-4.2,3.37s-3.88,1.22-6.23,1.22c-2.5,0-4.75-.43-6.74-1.28Z"/>
    <path class="cls-4" d="M248.41,322.11v32.67h-5.43v-4.83c-1.03,1.67-2.47,2.97-4.32,3.91-1.85.93-3.88,1.4-6.11,1.4-2.54,0-4.83-.53-6.86-1.58-2.03-1.05-3.63-2.63-4.8-4.74-1.17-2.11-1.76-4.67-1.76-7.69v-19.14h5.37v18.42c0,3.22.81,5.69,2.44,7.42,1.63,1.73,3.85,2.59,6.68,2.59s5.19-.89,6.86-2.68c1.67-1.79,2.5-4.39,2.5-7.81v-17.94h5.43Z"/>
    <path class="cls-4" d="M267.1,323.07c1.77-1.03,3.92-1.55,6.47-1.55v5.6h-1.43c-6.08,0-9.12,3.3-9.12,9.9v17.77h-5.42v-32.67h5.42v5.31c.95-1.87,2.31-3.32,4.08-4.35Z"/>
    <path class="cls-4" d="M279.82,329.53c1.35-2.52,3.21-4.48,5.57-5.87,2.36-1.39,5-2.09,7.9-2.09s5.35.62,7.45,1.85c2.11,1.23,3.68,2.78,4.71,4.65v-5.96h5.48v32.67h-5.48v-6.08c-1.07,1.91-2.67,3.49-4.8,4.74-2.13,1.25-4.6,1.88-7.42,1.88s-5.52-.71-7.87-2.15c-2.35-1.43-4.19-3.44-5.54-6.02-1.35-2.58-2.03-5.52-2.03-8.82s.68-6.27,2.03-8.79ZM303.97,331.95c-.99-1.83-2.33-3.23-4.02-4.2-1.69-.97-3.55-1.46-5.57-1.46s-3.88.48-5.54,1.43c-1.67.95-3,2.35-3.99,4.17-.99,1.83-1.49,3.97-1.49,6.44s.5,4.68,1.49,6.53c.99,1.85,2.32,3.26,3.99,4.23,1.67.97,3.52,1.46,5.54,1.46s3.88-.49,5.57-1.46c1.69-.97,3.03-2.38,4.02-4.23.99-1.85,1.49-4,1.49-6.47s-.5-4.61-1.49-6.44Z"/>
    <path class="cls-4" d="M345.7,325.12c2.46,2.41,3.7,5.87,3.7,10.4v19.26h-5.37v-18.48c0-3.26-.82-5.75-2.44-7.48-1.63-1.73-3.86-2.59-6.68-2.59s-5.14.89-6.83,2.68c-1.69,1.79-2.53,4.39-2.53,7.81v18.06h-5.42v-32.67h5.42v4.65c1.07-1.67,2.53-2.96,4.38-3.88,1.85-.91,3.88-1.37,6.11-1.37,3.97,0,7.19,1.2,9.66,3.61Z"/>
    <path class="cls-4" d="M358.28,329.53c1.35-2.52,3.23-4.48,5.63-5.87,2.4-1.39,5.16-2.09,8.26-2.09,4.01,0,7.32.97,9.93,2.92,2.6,1.95,4.32,4.65,5.16,8.11h-5.84c-.56-1.99-1.64-3.56-3.25-4.71s-3.61-1.73-5.99-1.73c-3.1,0-5.6,1.06-7.51,3.19-1.91,2.13-2.86,5.14-2.86,9.03s.95,6.98,2.86,9.12c1.91,2.15,4.41,3.22,7.51,3.22,2.38,0,4.37-.56,5.96-1.67,1.59-1.11,2.68-2.7,3.28-4.77h5.84c-.88,3.34-2.62,6.01-5.25,8.02-2.62,2.01-5.9,3.01-9.84,3.01-3.1,0-5.85-.69-8.26-2.09-2.41-1.39-4.28-3.36-5.63-5.9-1.35-2.54-2.03-5.52-2.03-8.94s.68-6.33,2.03-8.85Z"/>
    <path class="cls-4" d="M424.1,340.47h-26.11c.2,3.22,1.3,5.73,3.31,7.54,2.01,1.81,4.44,2.71,7.3,2.71,2.34,0,4.3-.55,5.87-1.64,1.57-1.09,2.67-2.55,3.31-4.38h5.84c-.88,3.14-2.62,5.69-5.25,7.66-2.62,1.97-5.88,2.95-9.78,2.95-3.1,0-5.87-.69-8.32-2.09-2.44-1.39-4.36-3.37-5.75-5.93-1.39-2.56-2.09-5.53-2.09-8.91s.68-6.34,2.03-8.88c1.35-2.54,3.25-4.5,5.69-5.87s5.25-2.06,8.44-2.06,5.84.68,8.23,2.03c2.38,1.35,4.22,3.21,5.51,5.57,1.29,2.37,1.94,5.04,1.94,8.02,0,1.03-.06,2.13-.18,3.28ZM417.3,330.73c-.92-1.49-2.16-2.62-3.73-3.4-1.57-.78-3.31-1.16-5.22-1.16-2.74,0-5.08.88-7,2.62-1.93,1.75-3.03,4.17-3.31,7.27h20.63c0-2.07-.46-3.84-1.37-5.34Z"/>
    <path class="cls-4" d="M453.16,353.74c-2.17-.97-3.87-2.33-5.1-4.05-1.23-1.73-1.87-3.73-1.91-5.99h5.78c.2,1.95,1,3.59,2.42,4.92,1.41,1.33,3.47,2,6.17,2s4.62-.65,6.11-1.94c1.49-1.29,2.24-2.95,2.24-4.98,0-1.59-.44-2.88-1.31-3.88-.88-.99-1.97-1.75-3.28-2.27-1.31-.52-3.08-1.07-5.31-1.67-2.74-.72-4.94-1.43-6.59-2.15-1.65-.71-3.06-1.84-4.23-3.37-1.17-1.53-1.76-3.59-1.76-6.17,0-2.27.58-4.27,1.73-6.02,1.15-1.75,2.77-3.1,4.86-4.05,2.09-.95,4.48-1.43,7.18-1.43,3.89,0,7.08.97,9.57,2.92,2.48,1.95,3.88,4.53,4.2,7.75h-5.96c-.2-1.59-1.03-2.99-2.5-4.2-1.47-1.21-3.42-1.82-5.84-1.82-2.26,0-4.11.59-5.54,1.76-1.43,1.17-2.15,2.81-2.15,4.92,0,1.51.43,2.74,1.28,3.7.85.95,1.91,1.68,3.16,2.18s3.01,1.06,5.28,1.7c2.74.75,4.95,1.5,6.62,2.24,1.67.74,3.1,1.87,4.29,3.4s1.79,3.61,1.79,6.23c0,2.03-.54,3.93-1.61,5.72-1.07,1.79-2.66,3.24-4.77,4.35-2.11,1.11-4.59,1.67-7.45,1.67s-5.2-.49-7.36-1.46Z"/>
    <path class="cls-4" d="M488.27,353.23c-2.48-1.39-4.43-3.37-5.84-5.93-1.41-2.56-2.12-5.53-2.12-8.91s.72-6.29,2.18-8.85c1.45-2.56,3.43-4.53,5.93-5.9s5.31-2.06,8.41-2.06,5.9.69,8.41,2.06,4.48,3.33,5.93,5.87c1.45,2.54,2.18,5.5,2.18,8.88s-.75,6.35-2.24,8.91-3.51,4.54-6.05,5.93c-2.54,1.39-5.37,2.09-8.47,2.09s-5.83-.69-8.32-2.09ZM502.07,349.18c1.71-.91,3.09-2.29,4.14-4.11,1.05-1.83,1.58-4.05,1.58-6.68s-.52-4.85-1.55-6.68c-1.03-1.83-2.38-3.19-4.05-4.08-1.67-.89-3.48-1.34-5.42-1.34s-3.81.45-5.46,1.34-2.97,2.26-3.96,4.08c-.99,1.83-1.49,4.05-1.49,6.68s.49,4.91,1.46,6.74c.97,1.83,2.27,3.19,3.91,4.08,1.63.89,3.42,1.34,5.37,1.34s3.78-.46,5.48-1.37Z"/>
    <path class="cls-4" d="M525.92,310.67v44.12h-5.42v-44.12h5.42Z"/>
    <path class="cls-4" d="M564.14,322.11v32.67h-5.43v-4.83c-1.03,1.67-2.47,2.97-4.32,3.91-1.85.93-3.88,1.4-6.11,1.4-2.54,0-4.83-.53-6.86-1.58-2.03-1.05-3.63-2.63-4.8-4.74-1.17-2.11-1.76-4.67-1.76-7.69v-19.14h5.37v18.42c0,3.22.81,5.69,2.44,7.42,1.63,1.73,3.85,2.59,6.68,2.59s5.19-.89,6.86-2.68c1.67-1.79,2.5-4.39,2.5-7.81v-17.94h5.43Z"/>
    <path class="cls-4" d="M579.93,326.58v19.26c0,1.59.34,2.71,1.01,3.37.67.66,1.85.98,3.52.98h3.99v4.59h-4.89c-3.02,0-5.29-.7-6.8-2.09-1.51-1.39-2.26-3.68-2.26-6.86v-19.26h-4.23v-4.47h4.23v-8.23h5.42v8.23h8.53v4.47h-8.53Z"/>
    <path class="cls-4" d="M595.2,315.73c-.72-.72-1.07-1.59-1.07-2.62s.36-1.91,1.07-2.62c.71-.72,1.59-1.07,2.62-1.07s1.84.36,2.53,1.07c.7.71,1.04,1.59,1.04,2.62s-.35,1.91-1.04,2.62c-.7.71-1.54,1.07-2.53,1.07s-1.91-.36-2.62-1.07ZM600.44,322.11v32.67h-5.42v-32.67h5.42Z"/>
    <path class="cls-4" d="M615.61,353.23c-2.48-1.39-4.43-3.37-5.84-5.93-1.41-2.56-2.12-5.53-2.12-8.91s.72-6.29,2.18-8.85c1.45-2.56,3.43-4.53,5.93-5.9s5.31-2.06,8.41-2.06,5.9.69,8.41,2.06,4.48,3.33,5.93,5.87c1.45,2.54,2.18,5.5,2.18,8.88s-.75,6.35-2.24,8.91-3.51,4.54-6.05,5.93c-2.54,1.39-5.37,2.09-8.47,2.09s-5.83-.69-8.32-2.09ZM629.42,349.18c1.71-.91,3.09-2.29,4.14-4.11,1.05-1.83,1.58-4.05,1.58-6.68s-.52-4.85-1.55-6.68c-1.03-1.83-2.38-3.19-4.05-4.08-1.67-.89-3.48-1.34-5.42-1.34s-3.81.45-5.46,1.34-2.97,2.26-3.96,4.08c-.99,1.83-1.49,4.05-1.49,6.68s.49,4.91,1.46,6.74c.97,1.83,2.27,3.19,3.91,4.08,1.63.89,3.42,1.34,5.37,1.34s3.78-.46,5.48-1.37Z"/>
    <path class="cls-4" d="M673.41,325.12c2.46,2.41,3.7,5.87,3.7,10.4v19.26h-5.37v-18.48c0-3.26-.82-5.75-2.44-7.48-1.63-1.73-3.86-2.59-6.68-2.59s-5.14.89-6.83,2.68c-1.69,1.79-2.53,4.39-2.53,7.81v18.06h-5.42v-32.67h5.42v4.65c1.07-1.67,2.53-2.96,4.38-3.88,1.85-.91,3.88-1.37,6.11-1.37,3.97,0,7.19,1.2,9.66,3.61Z"/>
    <path class="cls-4" d="M690.82,354.04c-1.99-.85-3.56-2.05-4.71-3.58-1.15-1.53-1.79-3.29-1.91-5.28h5.6c.16,1.63.92,2.96,2.29,4s3.17,1.55,5.4,1.55c2.07,0,3.7-.46,4.89-1.37s1.79-2.07,1.79-3.46-.64-2.49-1.91-3.19c-1.27-.7-3.24-1.38-5.9-2.06-2.42-.64-4.4-1.28-5.93-1.94-1.53-.66-2.84-1.63-3.93-2.92-1.09-1.29-1.64-2.99-1.64-5.1,0-1.67.5-3.2,1.49-4.59.99-1.39,2.4-2.49,4.23-3.31,1.83-.81,3.91-1.22,6.26-1.22,3.62,0,6.54.91,8.76,2.74s3.42,4.33,3.58,7.51h-5.42c-.12-1.71-.8-3.08-2.06-4.11-1.25-1.03-2.93-1.55-5.04-1.55-1.95,0-3.5.42-4.65,1.25-1.15.83-1.73,1.93-1.73,3.28,0,1.07.35,1.96,1.04,2.65.7.7,1.57,1.25,2.62,1.67,1.05.42,2.51.88,4.38,1.4,2.34.64,4.25,1.26,5.72,1.88,1.47.62,2.73,1.54,3.79,2.77,1.05,1.23,1.6,2.84,1.64,4.83,0,1.79-.5,3.4-1.49,4.83-.99,1.43-2.39,2.55-4.2,3.37s-3.88,1.22-6.23,1.22c-2.5,0-4.75-.43-6.74-1.28Z"/>
  </g>
  <path class="cls-2" d="M101.09,65.9c13.24,0,23.97,1.95,32.19,5.87,8.22,3.91,15.74,8.48,22.57,13.69,2.6,2.01,4.61,3.01,6.02,3.01,3.81,0,6.32-6.12,7.52-18.35h6.92c-.4,7.62-.7,16.8-.9,27.53-.2,10.73-.3,25.02-.3,42.87h-6.92c-1.41-9.63-3.26-18.55-5.57-26.78-2.31-8.22-6.27-15.24-11.88-21.06-5.42-6.42-12.49-11.43-21.21-15.04-8.72-3.61-17.6-5.42-26.63-5.42-10.43,0-19.66,2.56-27.68,7.67-8.02,5.11-14.79,12.39-20.31,21.81-5.52,9.43-9.73,20.51-12.64,33.24-2.91,12.74-4.36,26.73-4.36,41.97,0,36.1,5.57,62.53,16.7,79.28,11.13,16.75,27.93,25.12,50.39,25.12,6.42,0,11.98-.9,16.7-2.71,4.71-1.81,8.47-3.61,11.28-5.42,3.41-2.41,5.61-4.76,6.62-7.07,1-2.3,1.5-5.36,1.5-9.18v-29.18c0-8.62-.75-14.99-2.26-19.11-1.5-4.11-4.47-6.92-8.88-8.42-4.41-1.5-10.83-2.35-19.25-2.56v-6.02c3.81.2,8.32.35,13.54.45,5.21.1,10.68.2,16.39.3,5.72.1,10.88.15,15.49.15,7.22,0,13.79-.1,19.71-.3,5.91-.2,10.78-.4,14.59-.6v6.02c-4.21.2-7.37.9-9.48,2.11-2.1,1.21-3.51,3.61-4.21,7.22-.7,3.61-1.05,9.13-1.05,16.55v59.57h-6.02c-.2-3.41-.96-7.12-2.26-11.13-1.31-4.01-3.26-6.02-5.87-6.02-1.4,0-2.86.3-4.36.9-1.5.6-4.06,2.11-7.67,4.51-7.02,4.81-14.34,8.68-21.96,11.58-7.62,2.91-16.25,4.36-25.88,4.36-21.46,0-39.81-4.26-55.05-12.79-15.25-8.52-26.83-20.86-34.75-37C3.96,221.4,0,202.19,0,179.92s4.36-43.42,13.09-60.47c8.72-17.05,20.66-30.24,35.8-39.56,15.14-9.33,32.54-13.99,52.2-13.99Z"/>
  <path class="cls-10" d="M304.76,123.67c5.82,0,10.78,1.2,14.89,3.61,4.11,2.41,7.22,5.47,9.32,9.18,2.11,3.72,3.16,7.87,3.16,12.49,0,5.82-1.76,10.78-5.26,14.89-3.51,4.11-8.18,6.17-13.99,6.17-5.01,0-9.28-1.5-12.78-4.51-3.51-3.01-5.26-7.12-5.26-12.33,0-4.41,1.15-8.17,3.46-11.28,2.3-3.11,4.96-5.56,7.97-7.37-2.01-1.6-4.41-2.3-7.22-2.11-5.42.2-10.43,1.95-15.04,5.26-4.62,3.31-8.53,7.52-11.73,12.63-3.21,5.11-5.72,10.58-7.52,16.4-1.81,5.82-2.71,11.23-2.71,16.25v69.2c0,9.83,2.71,16.4,8.12,19.71s12.93,4.96,22.56,4.96v6.32c-4.62-.2-11.18-.45-19.71-.75-8.53-.3-17.5-.45-26.93-.45-7.22,0-14.44.15-21.66.45-7.22.3-12.74.55-16.55.75v-6.32c7.82,0,13.39-1.5,16.7-4.51,3.31-3.01,4.96-8.72,4.96-17.15v-94.47c0-9.02-1.5-15.69-4.51-20.01-3.01-4.31-8.72-6.47-17.15-6.47v-6.32c6.42.6,12.64.9,18.65.9,6.81,0,13.19-.35,19.1-1.05,5.91-.7,11.38-1.75,16.39-3.16v34.6c2.41-5.82,5.61-11.43,9.63-16.85,4.01-5.42,8.82-9.88,14.44-13.39,5.61-3.51,11.83-5.26,18.65-5.26Z"/>
  <path class="cls-2" d="M386.29,285.22c-8.42,0-15.64-1.61-21.66-4.81-6.02-3.21-10.53-7.62-13.54-13.24-3.01-5.61-4.51-12.03-4.51-19.25,0-8.82,2-15.99,6.02-21.51,4.01-5.51,9.18-9.97,15.49-13.39,6.32-3.41,13.04-6.27,20.16-8.57,7.12-2.3,13.84-4.51,20.16-6.62,6.32-2.11,11.53-4.56,15.65-7.37,4.11-2.81,6.17-6.52,6.17-11.13v-20.46c0-7.22-1.16-12.98-3.46-17.3-2.31-4.31-5.42-7.37-9.33-9.18-3.91-1.81-8.57-2.71-13.99-2.71-4.62,0-9.53.65-14.74,1.96-5.22,1.31-9.33,3.86-12.33,7.67,4.41,1.2,8.07,3.56,10.98,7.07,2.91,3.51,4.36,7.87,4.36,13.09,0,5.62-1.86,10.03-5.57,13.24-3.71,3.21-8.38,4.81-13.99,4.81-6.22,0-10.83-1.96-13.84-5.87-3.01-3.91-4.51-8.47-4.51-13.69s1.36-9.82,4.06-13.24c2.71-3.41,6.27-6.62,10.68-9.63,4.81-3.21,10.98-5.91,18.5-8.12,7.52-2.21,15.89-3.31,25.12-3.31,8.62,0,16.1.95,22.42,2.86,6.32,1.91,11.58,4.96,15.79,9.18,5.01,4.62,8.32,10.38,9.93,17.3,1.6,6.92,2.41,15.3,2.41,25.12v83.03c0,5.02.65,8.57,1.96,10.68,1.3,2.11,3.46,3.16,6.47,3.16,2,0,3.96-.5,5.87-1.5,1.9-1,4.16-2.51,6.77-4.51l3.01,5.11c-4.21,3.41-8.47,6.12-12.79,8.12-4.32,2-9.78,3.01-16.39,3.01s-11.64-1.01-15.65-3.01c-4.01-2-6.97-4.91-8.88-8.72-1.91-3.81-2.86-8.52-2.86-14.14-5.22,8.42-11.43,14.84-18.65,19.25-7.22,4.41-15.64,6.62-25.27,6.62ZM400.73,270.78c5.61,0,10.88-1.6,15.79-4.81,4.91-3.21,9.48-8.02,13.69-14.44v-59.87c-2.21,3.21-5.42,5.97-9.63,8.27-4.21,2.31-8.72,4.66-13.54,7.07-4.81,2.41-9.38,5.17-13.69,8.27-4.32,3.11-7.87,7.07-10.68,11.88-2.81,4.81-4.21,10.93-4.21,18.35,0,7.82,2,13.99,6.02,18.5,4.01,4.51,9.42,6.77,16.25,6.77Z"/>
  <path class="cls-2" d="M548.45,78.24v49.94h41.52v6.02h-41.52v118.24c0,8.23,1.5,14.04,4.51,17.45,3.01,3.41,7.32,5.11,12.94,5.11,5.21,0,9.88-2.11,13.99-6.32,4.11-4.21,7.67-11.33,10.68-21.36l5.72,2.11c-2.41,10.63-6.67,19.61-12.79,26.93-6.12,7.32-15.1,10.98-26.93,10.98-6.82,0-12.54-.86-17.15-2.56-4.62-1.7-8.63-4.16-12.03-7.37-4.41-4.61-7.42-10.12-9.03-16.55-1.61-6.42-2.41-14.94-2.41-25.57v-101.09h-27.68v-6.02h27.68v-43.92c6.21-.2,12.03-.75,17.45-1.65s10.43-2.36,15.04-4.36Z"/>
  <path class="cls-2" d="M742.93,285.22c-8.42,0-15.64-1.61-21.66-4.81-6.02-3.21-10.53-7.62-13.54-13.24-3.01-5.61-4.51-12.03-4.51-19.25,0-8.82,2-15.99,6.02-21.51,4.01-5.51,9.18-9.97,15.49-13.39,6.32-3.41,13.04-6.27,20.16-8.57,7.12-2.3,13.84-4.51,20.16-6.62,6.32-2.11,11.53-4.56,15.65-7.37,4.11-2.81,6.17-6.52,6.17-11.13v-20.46c0-7.22-1.16-12.98-3.46-17.3-2.31-4.31-5.42-7.37-9.33-9.18-3.91-1.81-8.57-2.71-13.99-2.71-4.62,0-9.53.65-14.74,1.96-5.22,1.31-9.33,3.86-12.33,7.67,4.41,1.2,8.07,3.56,10.98,7.07,2.91,3.51,4.36,7.87,4.36,13.09,0,5.62-1.86,10.03-5.57,13.24-3.71,3.21-8.38,4.81-13.99,4.81-6.22,0-10.83-1.96-13.84-5.87-3.01-3.91-4.51-8.47-4.51-13.69s1.36-9.82,4.06-13.24c2.71-3.41,6.27-6.62,10.68-9.63,4.81-3.21,10.98-5.91,18.5-8.12,7.52-2.21,15.89-3.31,25.12-3.31,8.62,0,16.1.95,22.42,2.86,6.32,1.91,11.58,4.96,15.79,9.18,5.01,4.62,8.32,10.38,9.93,17.3,1.6,6.92,2.41,15.3,2.41,25.12v83.03c0,5.02.65,8.57,1.96,10.68,1.3,2.11,3.46,3.16,6.47,3.16,2,0,3.96-.5,5.87-1.5,1.9-1,4.16-2.51,6.77-4.51l3.01,5.11c-4.21,3.41-8.47,6.12-12.79,8.12-4.32,2-9.78,3.01-16.39,3.01s-11.64-1.01-15.65-3.01c-4.01-2-6.97-4.91-8.88-8.72-1.91-3.81-2.86-8.52-2.86-14.14-5.22,8.42-11.43,14.84-18.65,19.25-7.22,4.41-15.64,6.62-25.27,6.62ZM757.37,270.78c5.61,0,10.88-1.6,15.79-4.81,4.91-3.21,9.48-8.02,13.69-14.44v-59.87c-2.21,3.21-5.42,5.97-9.63,8.27-4.21,2.31-8.72,4.66-13.54,7.07-4.81,2.41-9.38,5.17-13.69,8.27-4.32,3.11-7.87,7.07-10.68,11.88-2.81,4.81-4.21,10.93-4.21,18.35,0,7.82,2,13.99,6.02,18.5,4.01,4.51,9.42,6.77,16.25,6.77Z"/>
  <g>
    <g class="cls-11">
      <rect class="cls-9" x="541.56" y="27.72" width="189.13" height="259.86"/>
    </g>
    <g class="cls-5">
      <rect class="cls-6" x="581.97" y="27.72" width="189.13" height="259.86"/>
    </g>
  </g>
  <g>
    <path class="cls-1" d="M656.32,0c20.58,0,37.27,16.69,37.27,37.27s-16.69,37.27-37.27,37.27-37.27-16.69-37.27-37.27S635.74,0,656.32,0"/>
    <g class="cls-8">
      <rect class="cls-2" x="619.06" width="74.54" height="74.54"/>
    </g>
  </g>
</svg>