<?xml version="1.0" encoding="UTF-8"?>
<svg xmlns="http://www.w3.org/2000/svg" viewBox="0 0 807.79 364.02">
  <defs>
    <style>
      .cls-1 {
        stroke-width: .85px;
      }

      .cls-1, .cls-2, .cls-3, .cls-4, .cls-5, .cls-6 {
        stroke-miterlimit: 10;
      }

      .cls-1, .cls-4 {
        stroke: #231f20;
      }

      .cls-1, .cls-4, .cls-7 {
        fill: #5c3a1b;
      }

      .cls-8 {
        font-size: 108px;
      }

      .cls-8, .cls-9 {
        fill: #f6e8cb;
        font-family: PlayfairDisplayRoman-SemiBold, 'Playfair Display';
        font-variation-settings: 'wght' 600;
        font-weight: 600;
      }

      .cls-2 {
        stroke-width: 1.21px;
      }

      .cls-2, .cls-3, .cls-5, .cls-6 {
        fill: none;
      }

      .cls-2, .cls-3, .cls-6 {
        stroke: #f6e8cb;
      }

      .cls-3 {
        stroke-width: 1.24px;
      }

      .cls-4 {
        stroke-width: .85px;
      }

      .cls-10 {
        letter-spacing: 0em;
      }

      .cls-9 {
        font-size: 18px;
      }

      .cls-11 {
        letter-spacing: -.04em;
      }

      .cls-5 {
        stroke: #5c3a1b;
        stroke-width: 2px;
      }

      .cls-7 {
        stroke-width: 0px;
      }
    </style>
  </defs>
  <g id="Layer_2" data-name="Layer 2">
    <g>
      <rect class="cls-4" x=".43" y=".43" width="190" height="190"/>
      <g>
        <text class="cls-9" transform="translate(77.96 40.85)"><tspan class="cls-10" x="0" y="0">P</tspan><tspan x="11.02" y="0">ar</tspan><tspan class="cls-10" x="28.48" y="0">t</tspan></text>
        <text class="cls-8" transform="translate(60.43 126.07)"><tspan x="0" y="0">A</tspan></text>
        <g>
          <text class="cls-9" transform="translate(40.74 156.98)"><tspan x="0" y="0">Hospital care</tspan></text>
          <line class="cls-6" x1="41.39" y1="137.85" x2="149.41" y2="137.85"/>
          <line class="cls-6" x1="41.39" y1="165.37" x2="149.41" y2="165.37"/>
        </g>
      </g>
    </g>
    <g>
      <rect class="cls-4" x="205.87" y=".43" width="190" height="190"/>
      <g>
        <text class="cls-9" transform="translate(283.4 40.85)"><tspan class="cls-10" x="0" y="0">P</tspan><tspan x="11.02" y="0">ar</tspan><tspan class="cls-10" x="28.48" y="0">t</tspan></text>
        <text class="cls-8" transform="translate(265.88 126.07)"><tspan x="0" y="0">B</tspan></text>
        <g>
          <text class="cls-9" transform="translate(248.33 156.98)"><tspan x="0" y="0">Medical care</tspan></text>
          <line class="cls-6" x1="246.77" y1="137.85" x2="354.79" y2="137.85"/>
          <line class="cls-6" x1="246.77" y1="165.37" x2="354.79" y2="165.37"/>
        </g>
      </g>
    </g>
    <g>
      <rect class="cls-1" x="411.81" y=".43" width="190" height="190"/>
      <g>
        <text class="cls-9" transform="translate(489.34 40.85)"><tspan class="cls-10" x="0" y="0">P</tspan><tspan x="11.02" y="0">ar</tspan><tspan class="cls-10" x="28.48" y="0">t</tspan></text>
        <text class="cls-8" transform="translate(471.81 126.07)"><tspan x="0" y="0">C</tspan></text>
        <g>
          <text class="cls-9" transform="translate(423.12 156.98)"><tspan x="0" y="0">Medicare</tspan><tspan class="cls-11" x="77.08" y="0"> </tspan><tspan x="80.71" y="0">Advantage</tspan></text>
          <line class="cls-3" x1="423.4" y1="137.85" x2="590.15" y2="137.85"/>
          <line class="cls-3" x1="423.4" y1="165.37" x2="590.15" y2="165.37"/>
        </g>
      </g>
    </g>
    <g>
      <rect class="cls-4" x="617.36" y=".43" width="190" height="190"/>
      <g>
        <text class="cls-9" transform="translate(694.89 40.85)"><tspan class="cls-10" x="0" y="0">P</tspan><tspan x="11.02" y="0">ar</tspan><tspan class="cls-10" x="28.48" y="0">t</tspan></text>
        <text class="cls-8" transform="translate(677.37 126.07)"><tspan x="0" y="0">D</tspan></text>
        <g>
          <text class="cls-9" transform="translate(632.68 156.98)"><tspan x="0" y="0">Prescription Drugs</tspan></text>
          <line class="cls-2" x1="633.33" y1="137.85" x2="791.34" y2="137.85"/>
          <line class="cls-2" x1="633.33" y1="165.37" x2="791.34" y2="165.37"/>
        </g>
      </g>
    </g>
  </g>
  <g id="Layer_3" data-name="Layer 3">
    <g>
      <g>
        <path class="cls-7" d="m156.7,258.88c-1.28-.73-2.29-1.74-3.04-3.05s-1.12-2.77-1.12-4.4.37-3.1,1.12-4.4c.74-1.3,1.76-2.32,3.04-3.05,1.28-.73,2.7-1.09,4.25-1.09s2.99.36,4.27,1.09c1.28.73,2.29,1.74,3.02,3.04.74,1.3,1.1,2.77,1.1,4.42s-.37,3.12-1.1,4.42c-.74,1.3-1.74,2.31-3.02,3.04-1.28.73-2.7,1.09-4.27,1.09s-2.97-.36-4.25-1.09Zm7.4-1.62c.94-.54,1.67-1.32,2.21-2.33s.8-2.18.8-3.5-.27-2.52-.8-3.52-1.27-1.77-2.2-2.32c-.93-.54-1.98-.82-3.17-.82s-2.24.27-3.17.82c-.93.54-1.66,1.32-2.2,2.32s-.8,2.17-.8,3.52.27,2.5.8,3.5,1.27,1.78,2.21,2.33,1.99.82,3.16.82,2.22-.27,3.16-.82Z"/>
        <path class="cls-7" d="m176.05,247.04c.71-.42,1.58-.62,2.6-.62v2.26h-.58c-2.45,0-3.67,1.33-3.67,3.98v7.15h-2.18v-13.15h2.18v2.14c.38-.75.93-1.34,1.64-1.75Z"/>
        <path class="cls-7" d="m181.25,244.08c-.29-.29-.43-.64-.43-1.06s.14-.77.43-1.06.64-.43,1.06-.43.74.14,1.02.43c.28.29.42.64.42,1.06s-.14.77-.42,1.06c-.28.29-.62.43-1.02.43s-.77-.14-1.06-.43Zm2.11,2.57v13.15h-2.18v-13.15h2.18Z"/>
        <path class="cls-7" d="m195.49,247.18c.86.5,1.49,1.12,1.91,1.87v-2.4h2.21v13.44c0,1.2-.26,2.27-.77,3.2-.51.94-1.24,1.67-2.2,2.2-.95.53-2.06.79-3.32.79-1.73,0-3.17-.41-4.32-1.22-1.15-.82-1.83-1.93-2.04-3.34h2.16c.24.8.74,1.44,1.49,1.93.75.49,1.66.73,2.71.73,1.2,0,2.18-.38,2.94-1.13s1.14-1.81,1.14-3.17v-2.76c-.43.77-1.07,1.41-1.92,1.92-.85.51-1.84.77-2.98.77s-2.23-.29-3.18-.86c-.95-.58-1.7-1.38-2.24-2.42-.54-1.04-.82-2.22-.82-3.55s.27-2.52.82-3.54c.54-1.02,1.29-1.8,2.24-2.36.95-.56,2.01-.84,3.18-.84s2.13.25,2.99.74Zm1.31,3.43c-.4-.74-.94-1.3-1.62-1.69-.68-.39-1.43-.59-2.24-.59s-1.56.19-2.23.58c-.67.38-1.21.94-1.61,1.68s-.6,1.6-.6,2.59.2,1.88.6,2.63.94,1.31,1.61,1.7c.67.39,1.42.59,2.23.59s1.56-.2,2.24-.59c.68-.39,1.22-.96,1.62-1.7s.6-1.61.6-2.6-.2-1.86-.6-2.59Z"/>
        <path class="cls-7" d="m203.38,244.08c-.29-.29-.43-.64-.43-1.06s.14-.77.43-1.06.64-.43,1.06-.43.74.14,1.02.43c.28.29.42.64.42,1.06s-.14.77-.42,1.06c-.28.29-.62.43-1.02.43s-.77-.14-1.06-.43Zm2.11,2.57v13.15h-2.18v-13.15h2.18Z"/>
        <path class="cls-7" d="m219.5,247.86c.99.97,1.49,2.36,1.49,4.19v7.75h-2.16v-7.44c0-1.31-.33-2.32-.98-3.01s-1.55-1.04-2.69-1.04-2.07.36-2.75,1.08-1.02,1.77-1.02,3.14v7.27h-2.18v-13.15h2.18v1.87c.43-.67,1.02-1.19,1.76-1.56s1.56-.55,2.46-.55c1.6,0,2.9.48,3.89,1.45Z"/>
        <path class="cls-7" d="m224.57,249.64c.54-1.02,1.29-1.8,2.24-2.36.95-.56,2.01-.84,3.18-.84s2.15.25,3,.74,1.48,1.12,1.9,1.87v-2.4h2.21v13.15h-2.21v-2.45c-.43.77-1.08,1.4-1.93,1.91s-1.85.76-2.99.76-2.22-.29-3.17-.86c-.94-.58-1.69-1.38-2.23-2.42-.54-1.04-.82-2.22-.82-3.55s.27-2.52.82-3.54Zm9.72.97c-.4-.74-.94-1.3-1.62-1.69-.68-.39-1.43-.59-2.24-.59s-1.56.19-2.23.58c-.67.38-1.21.94-1.61,1.68s-.6,1.6-.6,2.59.2,1.88.6,2.63.94,1.31,1.61,1.7c.67.39,1.42.59,2.23.59s1.56-.2,2.24-.59c.68-.39,1.22-.96,1.62-1.7s.6-1.61.6-2.6-.2-1.86-.6-2.59Z"/>
        <path class="cls-7" d="m242.98,242.04v17.76h-2.18v-17.76h2.18Z"/>
        <path class="cls-7" d="m160.85,269.2v16.61h-2.18v-12.38l-5.52,12.38h-1.54l-5.54-12.41v12.41h-2.18v-16.61h2.35l6.14,13.73,6.14-13.73h2.33Z"/>
        <path class="cls-7" d="m176.47,280.04h-10.51c.08,1.3.52,2.31,1.33,3.04.81.73,1.79,1.09,2.94,1.09.94,0,1.73-.22,2.36-.66.63-.44,1.08-1.03,1.33-1.76h2.35c-.35,1.26-1.06,2.29-2.11,3.08-1.06.79-2.37,1.19-3.94,1.19-1.25,0-2.36-.28-3.35-.84-.98-.56-1.76-1.36-2.32-2.39-.56-1.03-.84-2.23-.84-3.59s.27-2.55.82-3.58c.54-1.02,1.31-1.81,2.29-2.36.98-.55,2.12-.83,3.4-.83s2.35.27,3.31.82,1.7,1.29,2.22,2.24.78,2.03.78,3.23c0,.42-.02.86-.07,1.32Zm-2.74-3.92c-.37-.6-.87-1.06-1.5-1.37-.63-.31-1.33-.47-2.1-.47-1.1,0-2.04.35-2.82,1.06-.78.7-1.22,1.68-1.33,2.93h8.3c0-.83-.18-1.55-.55-2.15Z"/>
        <path class="cls-7" d="m179.42,275.64c.54-1.02,1.29-1.8,2.24-2.36.95-.56,2.02-.84,3.2-.84,1.02,0,1.98.24,2.86.71.88.47,1.55,1.09,2.02,1.86v-6.96h2.21v17.76h-2.21v-2.47c-.43.78-1.07,1.43-1.92,1.93-.85.5-1.84.76-2.98.76s-2.23-.29-3.18-.86c-.95-.58-1.7-1.38-2.24-2.42-.54-1.04-.82-2.22-.82-3.55s.27-2.52.82-3.54Zm9.72.97c-.4-.74-.94-1.3-1.62-1.69-.68-.39-1.43-.59-2.24-.59s-1.56.19-2.23.58c-.67.38-1.21.94-1.61,1.68s-.6,1.6-.6,2.59.2,1.88.6,2.63.94,1.31,1.61,1.7c.67.39,1.42.59,2.23.59s1.56-.2,2.24-.59c.68-.39,1.22-.96,1.62-1.7s.6-1.61.6-2.6-.2-1.86-.6-2.59Z"/>
        <path class="cls-7" d="m195.72,270.08c-.29-.29-.43-.64-.43-1.06s.14-.77.43-1.06.64-.43,1.06-.43.74.14,1.02.43c.28.29.42.64.42,1.06s-.14.77-.42,1.06c-.28.29-.62.43-1.02.43s-.77-.14-1.06-.43Zm2.11,2.57v13.15h-2.18v-13.15h2.18Z"/>
        <path class="cls-7" d="m201.55,275.64c.54-1.02,1.3-1.8,2.27-2.36.97-.56,2.08-.84,3.32-.84,1.62,0,2.95.39,4,1.18,1.05.78,1.74,1.87,2.08,3.26h-2.35c-.22-.8-.66-1.43-1.31-1.9-.65-.46-1.45-.7-2.41-.7-1.25,0-2.26.43-3.02,1.28-.77.86-1.15,2.07-1.15,3.64s.38,2.81,1.15,3.67c.77.86,1.78,1.3,3.02,1.3.96,0,1.76-.22,2.4-.67s1.08-1.09,1.32-1.92h2.35c-.35,1.34-1.06,2.42-2.11,3.23-1.06.81-2.38,1.21-3.96,1.21-1.25,0-2.36-.28-3.32-.84-.97-.56-1.72-1.35-2.27-2.38-.54-1.02-.82-2.22-.82-3.6s.27-2.55.82-3.56Z"/>
        <path class="cls-7" d="m216.12,275.64c.54-1.02,1.29-1.8,2.24-2.36.95-.56,2.01-.84,3.18-.84s2.15.25,3,.74,1.48,1.12,1.9,1.87v-2.4h2.21v13.15h-2.21v-2.45c-.43.77-1.08,1.4-1.93,1.91s-1.85.76-2.99.76-2.22-.29-3.17-.86c-.94-.58-1.69-1.38-2.23-2.42-.54-1.04-.82-2.22-.82-3.55s.27-2.52.82-3.54Zm9.72.97c-.4-.74-.94-1.3-1.62-1.69-.68-.39-1.43-.59-2.24-.59s-1.56.19-2.23.58c-.67.38-1.21.94-1.61,1.68s-.6,1.6-.6,2.59.2,1.88.6,2.63.94,1.31,1.61,1.7c.67.39,1.42.59,2.23.59s1.56-.2,2.24-.59c.68-.39,1.22-.96,1.62-1.7s.6-1.61.6-2.6-.2-1.86-.6-2.59Z"/>
        <path class="cls-7" d="m236.17,273.04c.71-.42,1.58-.62,2.6-.62v2.26h-.58c-2.45,0-3.67,1.33-3.67,3.98v7.15h-2.18v-13.15h2.18v2.14c.38-.75.93-1.34,1.64-1.75Z"/>
        <path class="cls-7" d="m253.22,280.04h-10.51c.08,1.3.52,2.31,1.33,3.04.81.73,1.79,1.09,2.94,1.09.94,0,1.73-.22,2.36-.66.63-.44,1.08-1.03,1.33-1.76h2.35c-.35,1.26-1.06,2.29-2.11,3.08-1.06.79-2.37,1.19-3.94,1.19-1.25,0-2.36-.28-3.35-.84-.98-.56-1.76-1.36-2.32-2.39-.56-1.03-.84-2.23-.84-3.59s.27-2.55.82-3.58c.54-1.02,1.31-1.81,2.29-2.36.98-.55,2.12-.83,3.4-.83s2.35.27,3.31.82,1.7,1.29,2.22,2.24.78,2.03.78,3.23c0,.42-.02.86-.07,1.32Zm-2.74-3.92c-.37-.6-.87-1.06-1.5-1.37-.63-.31-1.33-.47-2.1-.47-1.1,0-2.04.35-2.82,1.06-.78.7-1.22,1.68-1.33,2.93h8.3c0-.83-.18-1.55-.55-2.15Z"/>
      </g>
      <g>
        <line class="cls-5" x1="99.33" y1="218.61" x2="296.61" y2="218.61"/>
        <g>
          <line class="cls-5" x1="99.33" y1="219.61" x2="99.33" y2="203.02"/>
          <rect class="cls-7" x="97.02" y="200.82" width="4.62" height="4.62"/>
        </g>
        <g>
          <line class="cls-5" x1="197.97" y1="234.02" x2="197.97" y2="217.43"/>
          <rect class="cls-7" x="195.66" y="231.59" width="4.62" height="4.62"/>
        </g>
        <g>
          <line class="cls-5" x1="296.61" y1="219.61" x2="296.61" y2="203.02"/>
          <rect class="cls-7" x="294.3" y="200.82" width="4.62" height="4.62"/>
        </g>
      </g>
    </g>
    <g>
      <g>
        <path class="cls-7" d="m681,243.2v16.61h-2.18v-12.38l-5.52,12.38h-1.54l-5.54-12.41v12.41h-2.18v-16.61h2.35l6.14,13.73,6.14-13.73h2.33Z"/>
        <path class="cls-7" d="m696.63,254.04h-10.51c.08,1.3.52,2.31,1.33,3.04.81.73,1.79,1.09,2.94,1.09.94,0,1.73-.22,2.36-.66.63-.44,1.08-1.03,1.33-1.76h2.35c-.35,1.26-1.06,2.29-2.11,3.08s-2.37,1.19-3.94,1.19c-1.25,0-2.36-.28-3.35-.84-.98-.56-1.76-1.36-2.32-2.39-.56-1.03-.84-2.23-.84-3.59s.27-2.55.82-3.58c.54-1.02,1.31-1.81,2.29-2.36s2.12-.83,3.4-.83,2.35.27,3.31.82,1.7,1.29,2.22,2.24c.52.95.78,2.03.78,3.23,0,.42-.02.86-.07,1.32Zm-2.74-3.92c-.37-.6-.87-1.06-1.5-1.37-.63-.31-1.33-.47-2.1-.47-1.1,0-2.04.35-2.82,1.06-.78.7-1.22,1.68-1.33,2.93h8.3c0-.83-.18-1.55-.55-2.15Z"/>
        <path class="cls-7" d="m699.58,249.64c.54-1.02,1.29-1.8,2.24-2.36.95-.56,2.02-.84,3.2-.84,1.02,0,1.98.24,2.86.71.88.47,1.55,1.09,2.02,1.86v-6.96h2.21v17.76h-2.21v-2.47c-.43.78-1.07,1.43-1.92,1.93-.85.5-1.84.76-2.98.76s-2.23-.29-3.18-.86c-.95-.58-1.7-1.38-2.24-2.42s-.82-2.22-.82-3.55.27-2.52.82-3.54Zm9.72.97c-.4-.74-.94-1.3-1.62-1.69-.68-.39-1.43-.59-2.24-.59s-1.56.19-2.23.58c-.67.38-1.21.94-1.61,1.68-.4.74-.6,1.6-.6,2.59s.2,1.88.6,2.63c.4.74.94,1.31,1.61,1.7.67.39,1.42.59,2.23.59s1.56-.2,2.24-.59c.68-.39,1.22-.96,1.62-1.7.4-.74.6-1.61.6-2.6s-.2-1.86-.6-2.59Z"/>
        <path class="cls-7" d="m715.87,244.08c-.29-.29-.43-.64-.43-1.06s.14-.77.43-1.06.64-.43,1.06-.43.74.14,1.02.43.42.64.42,1.06-.14.77-.42,1.06-.62.43-1.02.43-.77-.14-1.06-.43Zm2.11,2.57v13.15h-2.18v-13.15h2.18Z"/>
        <path class="cls-7" d="m721.71,249.64c.54-1.02,1.3-1.8,2.27-2.36.97-.56,2.08-.84,3.32-.84,1.62,0,2.95.39,4,1.18,1.05.78,1.74,1.87,2.08,3.26h-2.35c-.22-.8-.66-1.43-1.31-1.9-.65-.46-1.45-.7-2.41-.7-1.25,0-2.26.43-3.02,1.28-.77.86-1.15,2.07-1.15,3.64s.38,2.81,1.15,3.67c.77.86,1.78,1.3,3.02,1.3.96,0,1.76-.22,2.4-.67.64-.45,1.08-1.09,1.32-1.92h2.35c-.35,1.34-1.06,2.42-2.11,3.23-1.06.81-2.38,1.21-3.96,1.21-1.25,0-2.36-.28-3.32-.84-.97-.56-1.72-1.35-2.27-2.38-.54-1.02-.82-2.22-.82-3.6s.27-2.55.82-3.56Z"/>
        <path class="cls-7" d="m736.27,249.64c.54-1.02,1.29-1.8,2.24-2.36.95-.56,2.01-.84,3.18-.84s2.15.25,3,.74c.85.5,1.48,1.12,1.9,1.87v-2.4h2.21v13.15h-2.21v-2.45c-.43.77-1.08,1.4-1.93,1.91-.86.5-1.85.76-2.99.76s-2.22-.29-3.17-.86c-.94-.58-1.69-1.38-2.23-2.42-.54-1.04-.82-2.22-.82-3.55s.27-2.52.82-3.54Zm9.72.97c-.4-.74-.94-1.3-1.62-1.69-.68-.39-1.43-.59-2.24-.59s-1.56.19-2.23.58c-.67.38-1.21.94-1.61,1.68-.4.74-.6,1.6-.6,2.59s.2,1.88.6,2.63c.4.74.94,1.31,1.61,1.7.67.39,1.42.59,2.23.59s1.56-.2,2.24-.59c.68-.39,1.22-.96,1.62-1.7.4-.74.6-1.61.6-2.6s-.2-1.86-.6-2.59Z"/>
        <path class="cls-7" d="m756.33,247.04c.71-.42,1.58-.62,2.6-.62v2.26h-.58c-2.45,0-3.67,1.33-3.67,3.98v7.15h-2.18v-13.15h2.18v2.14c.38-.75.93-1.34,1.64-1.75Z"/>
        <path class="cls-7" d="m773.38,254.04h-10.51c.08,1.3.52,2.31,1.33,3.04.81.73,1.79,1.09,2.94,1.09.94,0,1.73-.22,2.36-.66.63-.44,1.08-1.03,1.33-1.76h2.35c-.35,1.26-1.06,2.29-2.11,3.08s-2.37,1.19-3.94,1.19c-1.25,0-2.36-.28-3.35-.84-.98-.56-1.76-1.36-2.32-2.39-.56-1.03-.84-2.23-.84-3.59s.27-2.55.82-3.58c.54-1.02,1.31-1.81,2.29-2.36s2.12-.83,3.4-.83,2.35.27,3.31.82,1.7,1.29,2.22,2.24c.52.95.78,2.03.78,3.23,0,.42-.02.86-.07,1.32Zm-2.74-3.92c-.37-.6-.87-1.06-1.5-1.37-.63-.31-1.33-.47-2.1-.47-1.1,0-2.04.35-2.82,1.06-.78.7-1.22,1.68-1.33,2.93h8.3c0-.83-.18-1.55-.55-2.15Z"/>
        <path class="cls-7" d="m652.5,273.19c.86-.5,1.85-.76,2.99-.76s2.23.28,3.18.84c.95.56,1.7,1.35,2.24,2.36.54,1.02.82,2.2.82,3.54s-.27,2.51-.82,3.55-1.29,1.85-2.24,2.42c-.95.58-2.01.86-3.18.86s-2.11-.25-2.96-.76c-.86-.5-1.51-1.13-1.96-1.88v8.66h-2.18v-19.39h2.18v2.42c.43-.75,1.08-1.38,1.93-1.88Zm6.4,3.4c-.4-.74-.94-1.3-1.62-1.68-.68-.38-1.43-.58-2.24-.58s-1.54.2-2.22.59c-.68.39-1.22.96-1.63,1.7-.41.74-.61,1.6-.61,2.58s.2,1.86.61,2.6c.41.74.95,1.31,1.63,1.7.68.39,1.42.59,2.22.59s1.56-.2,2.24-.59c.68-.39,1.22-.96,1.62-1.7.4-.74.6-1.62.6-2.63s-.2-1.86-.6-2.59Z"/>
        <path class="cls-7" d="m668.44,273.04c.71-.42,1.58-.62,2.6-.62v2.26h-.58c-2.45,0-3.67,1.33-3.67,3.98v7.15h-2.18v-13.15h2.18v2.14c.38-.75.93-1.34,1.64-1.75Z"/>
        <path class="cls-7" d="m685.49,280.04h-10.51c.08,1.3.52,2.31,1.33,3.04.81.73,1.79,1.09,2.94,1.09.94,0,1.73-.22,2.36-.66.63-.44,1.08-1.03,1.33-1.76h2.35c-.35,1.26-1.06,2.29-2.11,3.08s-2.37,1.19-3.94,1.19c-1.25,0-2.36-.28-3.35-.84-.98-.56-1.76-1.36-2.32-2.39-.56-1.03-.84-2.23-.84-3.59s.27-2.55.82-3.58c.54-1.02,1.31-1.81,2.29-2.36s2.12-.83,3.4-.83,2.35.27,3.31.82,1.7,1.29,2.22,2.24c.52.95.78,2.03.78,3.23,0,.42-.02.86-.07,1.32Zm-2.74-3.92c-.37-.6-.87-1.06-1.5-1.37-.63-.31-1.33-.47-2.1-.47-1.1,0-2.04.35-2.82,1.06-.78.7-1.22,1.68-1.33,2.93h8.3c0-.83-.18-1.55-.55-2.15Z"/>
        <path class="cls-7" d="m690.39,285.5c-.8-.34-1.43-.82-1.9-1.44-.46-.62-.72-1.32-.77-2.12h2.26c.06.66.37,1.19.92,1.61s1.28.62,2.17.62c.83,0,1.49-.18,1.97-.55.48-.37.72-.83.72-1.39s-.26-1-.77-1.28c-.51-.28-1.3-.56-2.38-.83-.98-.25-1.77-.52-2.39-.78-.62-.26-1.14-.66-1.58-1.18-.44-.52-.66-1.2-.66-2.05,0-.67.2-1.29.6-1.85.4-.56.97-1,1.7-1.33.74-.33,1.58-.49,2.52-.49,1.46,0,2.63.37,3.53,1.1.9.74,1.38,1.74,1.44,3.02h-2.18c-.05-.69-.32-1.24-.83-1.66-.5-.42-1.18-.62-2.03-.62-.78,0-1.41.17-1.87.5s-.7.78-.7,1.32c0,.43.14.79.42,1.07.28.28.63.5,1.06.67s1.01.36,1.76.56c.94.26,1.71.51,2.3.76.59.25,1.1.62,1.52,1.12s.64,1.14.66,1.94c0,.72-.2,1.37-.6,1.94-.4.58-.96,1.03-1.69,1.36-.73.33-1.56.49-2.51.49-1.01,0-1.91-.17-2.71-.52Z"/>
        <path class="cls-7" d="m700.97,275.64c.54-1.02,1.3-1.8,2.27-2.36.97-.56,2.08-.84,3.32-.84,1.62,0,2.95.39,4,1.18,1.05.78,1.74,1.87,2.08,3.26h-2.35c-.22-.8-.66-1.43-1.31-1.9-.65-.46-1.45-.7-2.41-.7-1.25,0-2.26.43-3.02,1.28-.77.86-1.15,2.07-1.15,3.64s.38,2.81,1.15,3.67c.77.86,1.78,1.3,3.02,1.3.96,0,1.76-.22,2.4-.67.64-.45,1.08-1.09,1.32-1.92h2.35c-.35,1.34-1.06,2.42-2.11,3.23-1.06.81-2.38,1.21-3.96,1.21-1.25,0-2.36-.28-3.32-.84-.97-.56-1.72-1.35-2.27-2.38-.54-1.02-.82-2.22-.82-3.6s.27-2.55.82-3.56Z"/>
        <path class="cls-7" d="m719.37,273.04c.71-.42,1.58-.62,2.6-.62v2.26h-.58c-2.45,0-3.67,1.33-3.67,3.98v7.15h-2.18v-13.15h2.18v2.14c.38-.75.93-1.34,1.64-1.75Z"/>
        <path class="cls-7" d="m724.56,270.08c-.29-.29-.43-.64-.43-1.06s.14-.77.43-1.06.64-.43,1.06-.43.74.14,1.02.43.42.64.42,1.06-.14.77-.42,1.06-.62.43-1.02.43-.77-.14-1.06-.43Zm2.11,2.57v13.15h-2.18v-13.15h2.18Z"/>
        <path class="cls-7" d="m734.51,273.19c.86-.5,1.85-.76,2.99-.76s2.23.28,3.18.84c.95.56,1.7,1.35,2.24,2.36.54,1.02.82,2.2.82,3.54s-.27,2.51-.82,3.55-1.29,1.85-2.24,2.42c-.95.58-2.01.86-3.18.86s-2.11-.25-2.96-.76c-.86-.5-1.51-1.13-1.96-1.88v8.66h-2.18v-19.39h2.18v2.42c.43-.75,1.08-1.38,1.93-1.88Zm6.4,3.4c-.4-.74-.94-1.3-1.62-1.68-.68-.38-1.43-.58-2.24-.58s-1.54.2-2.22.59c-.68.39-1.22.96-1.63,1.7s-.61,1.6-.61,2.58.2,1.86.61,2.6.95,1.31,1.63,1.7c.68.39,1.42.59,2.22.59s1.56-.2,2.24-.59c.68-.39,1.22-.96,1.62-1.7.4-.74.6-1.62.6-2.63s-.2-1.86-.6-2.59Z"/>
        <path class="cls-7" d="m749.28,274.45v7.75c0,.64.14,1.09.41,1.36.27.26.74.4,1.42.4h1.61v1.85h-1.97c-1.22,0-2.13-.28-2.74-.84-.61-.56-.91-1.48-.91-2.76v-7.75h-1.7v-1.8h1.7v-3.31h2.18v3.31h3.43v1.8h-3.43Z"/>
        <path class="cls-7" d="m755.43,270.08c-.29-.29-.43-.64-.43-1.06s.14-.77.43-1.06.64-.43,1.06-.43.74.14,1.02.43c.28.29.42.64.42,1.06s-.14.77-.42,1.06c-.28.29-.62.43-1.02.43s-.77-.14-1.06-.43Zm2.11,2.57v13.15h-2.18v-13.15h2.18Z"/>
        <path class="cls-7" d="m763.64,285.18c-1-.56-1.78-1.36-2.35-2.39-.57-1.03-.85-2.23-.85-3.59s.29-2.53.88-3.56c.58-1.03,1.38-1.82,2.39-2.38s2.14-.83,3.38-.83,2.38.28,3.38.83,1.8,1.34,2.39,2.36c.58,1.02.88,2.22.88,3.58s-.3,2.56-.9,3.59c-.6,1.03-1.41,1.83-2.44,2.39-1.02.56-2.16.84-3.41.84s-2.35-.28-3.35-.84Zm5.56-1.63c.69-.37,1.24-.92,1.67-1.66.42-.74.64-1.63.64-2.69s-.21-1.95-.62-2.69c-.42-.74-.96-1.28-1.63-1.64-.67-.36-1.4-.54-2.18-.54s-1.53.18-2.2.54c-.66.36-1.2.91-1.6,1.64-.4.74-.6,1.63-.6,2.69s.2,1.98.59,2.71c.39.74.92,1.28,1.57,1.64.66.36,1.38.54,2.16.54s1.52-.18,2.21-.55Z"/>
        <path class="cls-7" d="m786.91,273.86c.99.97,1.49,2.36,1.49,4.19v7.75h-2.16v-7.44c0-1.31-.33-2.32-.98-3.01s-1.55-1.04-2.69-1.04-2.07.36-2.75,1.08c-.68.72-1.02,1.77-1.02,3.14v7.27h-2.18v-13.15h2.18v1.87c.43-.67,1.02-1.19,1.76-1.56s1.56-.55,2.46-.55c1.6,0,2.9.48,3.89,1.45Z"/>
        <path class="cls-7" d="m631.32,301.64c.54-1.02,1.29-1.8,2.24-2.36.95-.56,2.02-.84,3.2-.84,1.02,0,1.98.24,2.86.71.88.47,1.55,1.09,2.02,1.86v-6.96h2.21v17.76h-2.21v-2.47c-.43.78-1.07,1.43-1.92,1.93-.85.5-1.84.76-2.98.76s-2.23-.29-3.18-.86c-.95-.58-1.7-1.38-2.24-2.42s-.82-2.22-.82-3.55.27-2.52.82-3.54Zm9.72.97c-.4-.74-.94-1.3-1.62-1.69-.68-.39-1.43-.59-2.24-.59s-1.56.19-2.23.58c-.67.38-1.21.94-1.61,1.68-.4.74-.6,1.6-.6,2.59s.2,1.88.6,2.63c.4.74.94,1.31,1.61,1.7.67.39,1.42.59,2.23.59s1.56-.2,2.24-.59c.68-.39,1.22-.96,1.62-1.7.4-.74.6-1.61.6-2.6s-.2-1.86-.6-2.59Z"/>
        <path class="cls-7" d="m651.38,299.04c.71-.42,1.58-.62,2.6-.62v2.26h-.58c-2.45,0-3.67,1.33-3.67,3.98v7.15h-2.18v-13.15h2.18v2.14c.38-.75.93-1.34,1.64-1.75Z"/>
        <path class="cls-7" d="m668.16,298.65v13.15h-2.18v-1.94c-.42.67-1,1.2-1.74,1.57s-1.56.56-2.46.56c-1.02,0-1.94-.21-2.76-.64-.82-.42-1.46-1.06-1.93-1.91-.47-.85-.71-1.88-.71-3.1v-7.7h2.16v7.42c0,1.3.33,2.29.98,2.99.66.7,1.55,1.04,2.69,1.04s2.09-.36,2.76-1.08c.67-.72,1.01-1.77,1.01-3.14v-7.22h2.18Z"/>
        <path class="cls-7" d="m680.27,299.18c.86.5,1.49,1.12,1.91,1.87v-2.4h2.21v13.44c0,1.2-.26,2.27-.77,3.2-.51.94-1.24,1.67-2.2,2.2-.95.53-2.06.79-3.32.79-1.73,0-3.17-.41-4.32-1.22-1.15-.82-1.83-1.93-2.04-3.34h2.16c.24.8.74,1.44,1.49,1.93s1.66.73,2.71.73c1.2,0,2.18-.38,2.94-1.13s1.14-1.81,1.14-3.17v-2.76c-.43.77-1.07,1.41-1.92,1.92s-1.84.77-2.98.77-2.23-.29-3.18-.86c-.95-.58-1.7-1.38-2.24-2.42-.54-1.04-.82-2.22-.82-3.55s.27-2.52.82-3.54c.54-1.02,1.29-1.8,2.24-2.36.95-.56,2.01-.84,3.18-.84s2.13.25,2.99.74Zm1.31,3.43c-.4-.74-.94-1.3-1.62-1.69-.68-.39-1.43-.59-2.24-.59s-1.56.19-2.23.58c-.67.38-1.21.94-1.61,1.68-.4.74-.6,1.6-.6,2.59s.2,1.88.6,2.63c.4.74.94,1.31,1.61,1.7.67.39,1.42.59,2.23.59s1.56-.2,2.24-.59c.68-.39,1.22-.96,1.62-1.7.4-.74.6-1.61.6-2.6s-.2-1.86-.6-2.59Z"/>
        <path class="cls-7" d="m694.49,301.64c.54-1.02,1.3-1.8,2.27-2.36.97-.56,2.08-.84,3.32-.84,1.62,0,2.95.39,4,1.18,1.05.78,1.74,1.87,2.08,3.26h-2.35c-.22-.8-.66-1.43-1.31-1.9-.65-.46-1.45-.7-2.41-.7-1.25,0-2.26.43-3.02,1.28-.77.86-1.15,2.07-1.15,3.64s.38,2.81,1.15,3.67c.77.86,1.78,1.3,3.02,1.3.96,0,1.76-.22,2.4-.67.64-.45,1.08-1.09,1.32-1.92h2.35c-.35,1.34-1.06,2.42-2.11,3.23-1.06.81-2.38,1.21-3.96,1.21-1.25,0-2.36-.28-3.32-.84-.97-.56-1.72-1.35-2.27-2.38-.54-1.02-.82-2.22-.82-3.6s.27-2.55.82-3.56Z"/>
        <path class="cls-7" d="m711.45,311.18c-1-.56-1.78-1.36-2.35-2.39-.57-1.03-.85-2.23-.85-3.59s.29-2.53.88-3.56c.58-1.03,1.38-1.82,2.39-2.38s2.14-.83,3.38-.83,2.38.28,3.38.83,1.8,1.34,2.39,2.36c.58,1.02.88,2.22.88,3.58s-.3,2.56-.9,3.59c-.6,1.03-1.41,1.83-2.44,2.39-1.02.56-2.16.84-3.41.84s-2.35-.28-3.35-.84Zm5.56-1.63c.69-.37,1.24-.92,1.67-1.66.42-.74.64-1.63.64-2.69s-.21-1.95-.62-2.69c-.42-.74-.96-1.28-1.63-1.64-.67-.36-1.4-.54-2.18-.54s-1.53.18-2.2.54c-.66.36-1.2.91-1.6,1.64-.4.74-.6,1.63-.6,2.69s.2,1.98.59,2.71c.39.74.92,1.28,1.57,1.64.66.36,1.38.54,2.16.54s1.52-.18,2.21-.55Z"/>
        <path class="cls-7" d="m729.31,309.79l4.08-11.14h2.33l-5.16,13.15h-2.54l-5.16-13.15h2.35l4.1,11.14Z"/>
        <path class="cls-7" d="m749.81,306.04h-10.51c.08,1.3.52,2.31,1.33,3.04.81.73,1.79,1.09,2.94,1.09.94,0,1.73-.22,2.36-.66.63-.44,1.08-1.03,1.33-1.76h2.35c-.35,1.26-1.06,2.29-2.11,3.08-1.06.79-2.37,1.19-3.94,1.19-1.25,0-2.36-.28-3.35-.84-.98-.56-1.76-1.36-2.32-2.39-.56-1.03-.84-2.23-.84-3.59s.27-2.55.82-3.58c.54-1.02,1.31-1.81,2.29-2.36.98-.55,2.12-.83,3.4-.83s2.35.27,3.31.82,1.7,1.29,2.22,2.24c.52.95.78,2.03.78,3.23,0,.42-.02.86-.07,1.32Zm-2.74-3.92c-.37-.6-.87-1.06-1.5-1.37-.63-.31-1.33-.47-2.1-.47-1.1,0-2.04.35-2.82,1.06s-1.22,1.68-1.33,2.93h8.3c0-.83-.18-1.55-.55-2.15Z"/>
        <path class="cls-7" d="m756.59,299.04c.71-.42,1.58-.62,2.6-.62v2.26h-.58c-2.45,0-3.67,1.33-3.67,3.98v7.15h-2.18v-13.15h2.18v2.14c.38-.75.93-1.34,1.64-1.75Z"/>
        <path class="cls-7" d="m761.71,301.64c.54-1.02,1.29-1.8,2.24-2.36.95-.56,2.01-.84,3.18-.84s2.15.25,3,.74c.85.5,1.48,1.12,1.9,1.87v-2.4h2.21v13.15h-2.21v-2.45c-.43.77-1.08,1.4-1.93,1.91-.86.5-1.85.76-2.99.76s-2.22-.29-3.17-.86c-.94-.58-1.69-1.38-2.23-2.42s-.82-2.22-.82-3.55.27-2.52.82-3.54Zm9.72.97c-.4-.74-.94-1.3-1.62-1.69-.68-.39-1.43-.59-2.24-.59s-1.56.19-2.23.58c-.67.38-1.21.94-1.61,1.68-.4.74-.6,1.6-.6,2.59s.2,1.88.6,2.63c.4.74.94,1.31,1.61,1.7.67.39,1.42.59,2.23.59s1.56-.2,2.24-.59c.68-.39,1.22-.96,1.62-1.7.4-.74.6-1.61.6-2.6s-.2-1.86-.6-2.59Z"/>
        <path class="cls-7" d="m786.35,299.18c.86.5,1.49,1.12,1.91,1.87v-2.4h2.21v13.44c0,1.2-.26,2.27-.77,3.2-.51.94-1.24,1.67-2.2,2.2-.95.53-2.06.79-3.32.79-1.73,0-3.17-.41-4.32-1.22-1.15-.82-1.83-1.93-2.04-3.34h2.16c.24.8.74,1.44,1.49,1.93.75.49,1.66.73,2.71.73,1.2,0,2.18-.38,2.94-1.13s1.14-1.81,1.14-3.17v-2.76c-.43.77-1.07,1.41-1.92,1.92-.85.51-1.84.77-2.98.77s-2.23-.29-3.18-.86c-.95-.58-1.7-1.38-2.24-2.42s-.82-2.22-.82-3.55.27-2.52.82-3.54c.54-1.02,1.29-1.8,2.24-2.36.95-.56,2.01-.84,3.18-.84s2.13.25,2.99.74Zm1.31,3.43c-.4-.74-.94-1.3-1.62-1.69-.68-.39-1.43-.59-2.24-.59s-1.56.19-2.23.58c-.67.38-1.21.94-1.61,1.68-.4.74-.6,1.6-.6,2.59s.2,1.88.6,2.63c.4.74.94,1.31,1.61,1.7.67.39,1.42.59,2.23.59s1.56-.2,2.24-.59c.68-.39,1.22-.96,1.62-1.7.4-.74.6-1.61.6-2.6s-.2-1.86-.6-2.59Z"/>
        <path class="cls-7" d="m806.09,306.04h-10.51c.08,1.3.52,2.31,1.33,3.04.81.73,1.79,1.09,2.94,1.09.94,0,1.73-.22,2.36-.66.63-.44,1.08-1.03,1.33-1.76h2.35c-.35,1.26-1.06,2.29-2.11,3.08-1.06.79-2.37,1.19-3.94,1.19-1.25,0-2.36-.28-3.35-.84-.98-.56-1.76-1.36-2.32-2.39-.56-1.03-.84-2.23-.84-3.59s.27-2.55.82-3.58c.54-1.02,1.31-1.81,2.29-2.36.98-.55,2.12-.83,3.4-.83s2.35.27,3.31.82,1.7,1.29,2.22,2.24c.52.95.78,2.03.78,3.23,0,.42-.02.86-.07,1.32Zm-2.74-3.92c-.37-.6-.87-1.06-1.5-1.37-.63-.31-1.33-.47-2.1-.47-1.1,0-2.04.35-2.82,1.06s-1.22,1.68-1.33,2.93h8.3c0-.83-.18-1.55-.55-2.15Z"/>
        <path class="cls-7" d="m691.18,325.19c.86-.5,1.85-.76,2.99-.76s2.23.28,3.18.84c.95.56,1.7,1.35,2.24,2.36.54,1.02.82,2.2.82,3.54s-.27,2.51-.82,3.55-1.29,1.85-2.24,2.42c-.95.58-2.01.86-3.18.86s-2.11-.25-2.96-.76c-.86-.5-1.51-1.13-1.96-1.88v8.66h-2.18v-19.39h2.18v2.42c.43-.75,1.08-1.38,1.93-1.88Zm6.4,3.4c-.4-.74-.94-1.3-1.62-1.68-.68-.38-1.43-.58-2.24-.58s-1.54.2-2.22.59c-.68.39-1.22.96-1.63,1.7s-.61,1.6-.61,2.58.2,1.86.61,2.6.95,1.31,1.63,1.7c.68.39,1.42.59,2.22.59s1.56-.2,2.24-.59c.68-.39,1.22-.96,1.62-1.7.4-.74.6-1.62.6-2.63s-.2-1.86-.6-2.59Z"/>
        <path class="cls-7" d="m705.47,320.04v17.76h-2.18v-17.76h2.18Z"/>
        <path class="cls-7" d="m709.19,327.64c.54-1.02,1.29-1.8,2.24-2.36.95-.56,2.01-.84,3.18-.84s2.15.25,3,.74c.85.5,1.48,1.12,1.9,1.87v-2.4h2.21v13.15h-2.21v-2.45c-.43.77-1.08,1.4-1.93,1.91-.86.5-1.85.76-2.99.76s-2.22-.29-3.17-.86c-.94-.58-1.69-1.38-2.23-2.42-.54-1.04-.82-2.22-.82-3.55s.27-2.52.82-3.54Zm9.72.97c-.4-.74-.94-1.3-1.62-1.69-.68-.39-1.43-.59-2.24-.59s-1.56.19-2.23.58c-.67.38-1.21.94-1.61,1.68-.4.74-.6,1.6-.6,2.59s.2,1.88.6,2.63c.4.74.94,1.31,1.61,1.7.67.39,1.42.59,2.23.59s1.56-.2,2.24-.59c.68-.39,1.22-.96,1.62-1.7.4-.74.6-1.61.6-2.6s-.2-1.86-.6-2.59Z"/>
        <path class="cls-7" d="m735.71,325.86c.99.97,1.49,2.36,1.49,4.19v7.75h-2.16v-7.44c0-1.31-.33-2.32-.98-3.01s-1.55-1.04-2.69-1.04-2.07.36-2.75,1.08c-.68.72-1.02,1.77-1.02,3.14v7.27h-2.18v-13.15h2.18v1.87c.43-.67,1.02-1.19,1.76-1.56s1.56-.55,2.46-.55c1.6,0,2.9.48,3.89,1.45Z"/>
        <path class="cls-7" d="m742.72,337.5c-.8-.34-1.43-.82-1.9-1.44-.46-.62-.72-1.32-.77-2.12h2.26c.06.66.37,1.19.92,1.61.55.42,1.28.62,2.17.62.83,0,1.49-.18,1.97-.55s.72-.83.72-1.39-.26-1-.77-1.28c-.51-.28-1.3-.56-2.38-.83-.98-.25-1.77-.52-2.39-.78-.62-.26-1.14-.66-1.58-1.18-.44-.52-.66-1.2-.66-2.05,0-.67.2-1.29.6-1.85.4-.56.97-1,1.7-1.33.74-.33,1.58-.49,2.52-.49,1.46,0,2.63.37,3.53,1.1.9.74,1.38,1.74,1.44,3.02h-2.18c-.05-.69-.32-1.24-.83-1.66-.5-.42-1.18-.62-2.03-.62-.78,0-1.41.17-1.87.5-.46.34-.7.78-.7,1.32,0,.43.14.79.42,1.07s.63.5,1.06.67,1.01.36,1.76.56c.94.26,1.71.51,2.3.76s1.1.62,1.52,1.12c.42.5.64,1.14.66,1.94,0,.72-.2,1.37-.6,1.94-.4.58-.96,1.03-1.69,1.36-.73.33-1.56.49-2.51.49-1.01,0-1.91-.17-2.71-.52Z"/>
      </g>
      <g>
        <line class="cls-5" x1="716.53" y1="217.28" x2="716.53" y2="202.88"/>
        <rect class="cls-7" x="714.22" y="214.85" width="4.62" height="4.62"/>
        <rect class="cls-7" x="714.22" y="200.69" width="4.62" height="4.62"/>
      </g>
    </g>
    <g>
      <g>
        <path class="cls-7" d="m422.51,251.44c-.95.92-2.4,1.38-4.36,1.38h-3.22v6.98h-2.18v-16.73h5.4c1.89,0,3.32.46,4.31,1.37.98.91,1.48,2.09,1.48,3.53s-.48,2.55-1.43,3.47Zm-1.67-1.21c.58-.53.86-1.28.86-2.26,0-2.06-1.18-3.1-3.55-3.1h-3.22v6.14h3.22c1.22,0,2.11-.26,2.69-.79Z"/>
        <path class="cls-7" d="m430.47,247.04c.71-.42,1.58-.62,2.6-.62v2.26h-.58c-2.45,0-3.67,1.33-3.67,3.98v7.15h-2.18v-13.15h2.18v2.14c.38-.75.93-1.34,1.64-1.75Z"/>
        <path class="cls-7" d="m435.67,244.08c-.29-.29-.43-.64-.43-1.06s.14-.77.43-1.06.64-.43,1.06-.43.74.14,1.02.43c.28.29.42.64.42,1.06s-.14.77-.42,1.06c-.28.29-.62.43-1.02.43s-.77-.14-1.06-.43Zm2.11,2.57v13.15h-2.18v-13.15h2.18Z"/>
        <path class="cls-7" d="m446.4,257.79l4.08-11.14h2.33l-5.16,13.15h-2.54l-5.16-13.15h2.35l4.1,11.14Z"/>
        <path class="cls-7" d="m454.96,249.64c.54-1.02,1.29-1.8,2.24-2.36.95-.56,2.01-.84,3.18-.84s2.15.25,3,.74c.85.5,1.48,1.12,1.9,1.87v-2.4h2.21v13.15h-2.21v-2.45c-.43.77-1.08,1.4-1.93,1.91-.86.5-1.85.76-2.99.76s-2.22-.29-3.17-.86c-.94-.58-1.69-1.38-2.23-2.42s-.82-2.22-.82-3.55.27-2.52.82-3.54Zm9.72.97c-.4-.74-.94-1.3-1.62-1.69-.68-.39-1.43-.59-2.24-.59s-1.56.19-2.23.58c-.67.38-1.21.94-1.61,1.68-.4.74-.6,1.6-.6,2.59s.2,1.88.6,2.63c.4.74.94,1.31,1.61,1.7.67.39,1.42.59,2.23.59s1.56-.2,2.24-.59c.68-.39,1.22-.96,1.62-1.7.4-.74.6-1.61.6-2.6s-.2-1.86-.6-2.59Z"/>
        <path class="cls-7" d="m473.85,248.45v7.75c0,.64.14,1.09.41,1.36.27.26.74.4,1.42.4h1.61v1.85h-1.97c-1.22,0-2.13-.28-2.74-.84-.61-.56-.91-1.48-.91-2.76v-7.75h-1.7v-1.8h1.7v-3.31h2.18v3.31h3.43v1.8h-3.43Z"/>
        <path class="cls-7" d="m491.85,254.04h-10.51c.08,1.3.52,2.31,1.33,3.04.81.73,1.79,1.09,2.94,1.09.94,0,1.73-.22,2.36-.66.63-.44,1.08-1.03,1.33-1.76h2.35c-.35,1.26-1.06,2.29-2.11,3.08s-2.37,1.19-3.94,1.19c-1.25,0-2.36-.28-3.35-.84-.98-.56-1.76-1.36-2.32-2.39-.56-1.03-.84-2.23-.84-3.59s.27-2.55.82-3.58c.54-1.02,1.31-1.81,2.29-2.36s2.12-.83,3.4-.83,2.35.27,3.31.82,1.7,1.29,2.22,2.24c.52.95.78,2.03.78,3.23,0,.42-.02.86-.07,1.32Zm-2.74-3.92c-.37-.6-.87-1.06-1.5-1.37-.63-.31-1.33-.47-2.1-.47-1.1,0-2.04.35-2.82,1.06-.78.7-1.22,1.68-1.33,2.93h8.3c0-.83-.18-1.55-.55-2.15Z"/>
        <path class="cls-7" d="m519.76,247.05c.8.42,1.43,1.06,1.9,1.91.46.85.7,1.88.7,3.1v7.75h-2.16v-7.44c0-1.31-.32-2.32-.97-3.01-.65-.7-1.52-1.04-2.63-1.04s-2.04.36-2.71,1.09c-.67.73-1.01,1.78-1.01,3.16v7.25h-2.16v-7.44c0-1.31-.32-2.32-.97-3.01-.65-.7-1.52-1.04-2.63-1.04s-2.04.36-2.71,1.09c-.67.73-1.01,1.78-1.01,3.16v7.25h-2.18v-13.15h2.18v1.9c.43-.69,1.01-1.22,1.74-1.58.73-.37,1.53-.55,2.41-.55,1.1,0,2.08.25,2.93.74.85.5,1.48,1.22,1.9,2.18.37-.93.98-1.65,1.82-2.16.85-.51,1.79-.77,2.83-.77s1.94.21,2.74.64Z"/>
        <path class="cls-7" d="m537.86,254.04h-10.51c.08,1.3.52,2.31,1.33,3.04.81.73,1.79,1.09,2.94,1.09.94,0,1.73-.22,2.36-.66.63-.44,1.08-1.03,1.33-1.76h2.35c-.35,1.26-1.06,2.29-2.11,3.08s-2.37,1.19-3.94,1.19c-1.25,0-2.36-.28-3.35-.84-.98-.56-1.76-1.36-2.32-2.39-.56-1.03-.84-2.23-.84-3.59s.27-2.55.82-3.58c.54-1.02,1.31-1.81,2.29-2.36s2.12-.83,3.4-.83,2.35.27,3.31.82,1.7,1.29,2.22,2.24c.52.95.78,2.03.78,3.23,0,.42-.02.86-.07,1.32Zm-2.74-3.92c-.37-.6-.87-1.06-1.5-1.37-.63-.31-1.33-.47-2.1-.47-1.1,0-2.04.35-2.82,1.06-.78.7-1.22,1.68-1.33,2.93h8.3c0-.83-.18-1.55-.55-2.15Z"/>
        <path class="cls-7" d="m540.81,249.64c.54-1.02,1.29-1.8,2.24-2.36.95-.56,2.02-.84,3.2-.84,1.02,0,1.98.24,2.86.71.88.47,1.55,1.09,2.02,1.86v-6.96h2.21v17.76h-2.21v-2.47c-.43.78-1.07,1.43-1.92,1.93-.85.5-1.84.76-2.98.76s-2.23-.29-3.18-.86c-.95-.58-1.7-1.38-2.24-2.42s-.82-2.22-.82-3.55.27-2.52.82-3.54Zm9.72.97c-.4-.74-.94-1.3-1.62-1.69-.68-.39-1.43-.59-2.24-.59s-1.56.19-2.23.58c-.67.38-1.21.94-1.61,1.68-.4.74-.6,1.6-.6,2.59s.2,1.88.6,2.63c.4.74.94,1.31,1.61,1.7.67.39,1.42.59,2.23.59s1.56-.2,2.24-.59c.68-.39,1.22-.96,1.62-1.7.4-.74.6-1.61.6-2.6s-.2-1.86-.6-2.59Z"/>
        <path class="cls-7" d="m557.11,244.08c-.29-.29-.43-.64-.43-1.06s.14-.77.43-1.06.64-.43,1.06-.43.74.14,1.02.43c.28.29.42.64.42,1.06s-.14.77-.42,1.06c-.28.29-.62.43-1.02.43s-.77-.14-1.06-.43Zm2.11,2.57v13.15h-2.18v-13.15h2.18Z"/>
        <path class="cls-7" d="m562.94,249.64c.54-1.02,1.3-1.8,2.27-2.36.97-.56,2.08-.84,3.32-.84,1.62,0,2.95.39,4,1.18,1.05.78,1.74,1.87,2.08,3.26h-2.35c-.22-.8-.66-1.43-1.31-1.9-.65-.46-1.45-.7-2.41-.7-1.25,0-2.26.43-3.02,1.28-.77.86-1.15,2.07-1.15,3.64s.38,2.81,1.15,3.67c.77.86,1.78,1.3,3.02,1.3.96,0,1.76-.22,2.4-.67.64-.45,1.08-1.09,1.32-1.92h2.35c-.35,1.34-1.06,2.42-2.11,3.23-1.06.81-2.38,1.21-3.96,1.21-1.25,0-2.36-.28-3.32-.84-.97-.56-1.72-1.35-2.27-2.38-.54-1.02-.82-2.22-.82-3.6s.27-2.55.82-3.56Z"/>
        <path class="cls-7" d="m577.51,249.64c.54-1.02,1.29-1.8,2.24-2.36.95-.56,2.01-.84,3.18-.84s2.15.25,3,.74c.85.5,1.48,1.12,1.9,1.87v-2.4h2.21v13.15h-2.21v-2.45c-.43.77-1.08,1.4-1.93,1.91-.86.5-1.85.76-2.99.76s-2.22-.29-3.17-.86c-.94-.58-1.69-1.38-2.23-2.42s-.82-2.22-.82-3.55.27-2.52.82-3.54Zm9.72.97c-.4-.74-.94-1.3-1.62-1.69-.68-.39-1.43-.59-2.24-.59s-1.56.19-2.23.58c-.67.38-1.21.94-1.61,1.68-.4.74-.6,1.6-.6,2.59s.2,1.88.6,2.63c.4.74.94,1.31,1.61,1.7.67.39,1.42.59,2.23.59s1.56-.2,2.24-.59c.68-.39,1.22-.96,1.62-1.7.4-.74.6-1.61.6-2.6s-.2-1.86-.6-2.59Z"/>
        <path class="cls-7" d="m595.92,242.04v17.76h-2.18v-17.76h2.18Z"/>
        <path class="cls-7" d="m449.46,273.19c.86-.5,1.85-.76,2.99-.76s2.23.28,3.18.84c.95.56,1.7,1.35,2.24,2.36.54,1.02.82,2.2.82,3.54s-.27,2.51-.82,3.55-1.29,1.85-2.24,2.42c-.95.58-2.01.86-3.18.86s-2.11-.25-2.96-.76c-.86-.5-1.51-1.13-1.96-1.88v8.66h-2.18v-19.39h2.18v2.42c.43-.75,1.08-1.38,1.93-1.88Zm6.4,3.4c-.4-.74-.94-1.3-1.62-1.68-.68-.38-1.43-.58-2.24-.58s-1.54.2-2.22.59c-.68.39-1.22.96-1.63,1.7-.41.74-.61,1.6-.61,2.58s.2,1.86.61,2.6c.41.74.95,1.31,1.63,1.7.68.39,1.42.59,2.22.59s1.56-.2,2.24-.59c.68-.39,1.22-.96,1.62-1.7.4-.74.6-1.62.6-2.63s-.2-1.86-.6-2.59Z"/>
        <path class="cls-7" d="m463.75,268.04v17.76h-2.18v-17.76h2.18Z"/>
        <path class="cls-7" d="m467.47,275.64c.54-1.02,1.29-1.8,2.24-2.36.95-.56,2.01-.84,3.18-.84s2.15.25,3,.74c.85.5,1.48,1.12,1.9,1.87v-2.4h2.21v13.15h-2.21v-2.45c-.43.77-1.08,1.4-1.93,1.91-.86.5-1.85.76-2.99.76s-2.22-.29-3.17-.86c-.94-.58-1.69-1.38-2.23-2.42s-.82-2.22-.82-3.55.27-2.52.82-3.54Zm9.72.97c-.4-.74-.94-1.3-1.62-1.69-.68-.39-1.43-.59-2.24-.59s-1.56.19-2.23.58c-.67.38-1.21.94-1.61,1.68-.4.74-.6,1.6-.6,2.59s.2,1.88.6,2.63c.4.74.94,1.31,1.61,1.7.67.39,1.42.59,2.23.59s1.56-.2,2.24-.59c.68-.39,1.22-.96,1.62-1.7.4-.74.6-1.61.6-2.6s-.2-1.86-.6-2.59Z"/>
        <path class="cls-7" d="m493.99,273.86c.99.97,1.49,2.36,1.49,4.19v7.75h-2.16v-7.44c0-1.31-.33-2.32-.98-3.01s-1.55-1.04-2.69-1.04-2.07.36-2.75,1.08c-.68.72-1.02,1.77-1.02,3.14v7.27h-2.18v-13.15h2.18v1.87c.43-.67,1.02-1.19,1.76-1.56s1.56-.55,2.46-.55c1.6,0,2.9.48,3.89,1.45Z"/>
        <path class="cls-7" d="m501,285.5c-.8-.34-1.43-.82-1.9-1.44-.46-.62-.72-1.32-.77-2.12h2.26c.06.66.37,1.19.92,1.61s1.28.62,2.17.62c.83,0,1.49-.18,1.97-.55.48-.37.72-.83.72-1.39s-.26-1-.77-1.28c-.51-.28-1.3-.56-2.38-.83-.98-.25-1.77-.52-2.39-.78-.62-.26-1.14-.66-1.58-1.18-.44-.52-.66-1.2-.66-2.05,0-.67.2-1.29.6-1.85.4-.56.97-1,1.7-1.33.74-.33,1.58-.49,2.52-.49,1.46,0,2.63.37,3.53,1.1.9.74,1.38,1.74,1.44,3.02h-2.18c-.05-.69-.32-1.24-.83-1.66-.5-.42-1.18-.62-2.03-.62-.78,0-1.41.17-1.87.5s-.7.78-.7,1.32c0,.43.14.79.42,1.07.28.28.63.5,1.06.67s1.01.36,1.76.56c.94.26,1.71.51,2.3.76.59.25,1.1.62,1.52,1.12s.64,1.14.66,1.94c0,.72-.2,1.37-.6,1.94-.4.58-.96,1.03-1.69,1.36-.73.33-1.56.49-2.51.49-1.01,0-1.91-.17-2.71-.52Z"/>
        <path class="cls-7" d="m520.65,274.45v7.75c0,.64.14,1.09.41,1.36.27.26.74.4,1.42.4h1.61v1.85h-1.97c-1.22,0-2.13-.28-2.74-.84-.61-.56-.91-1.48-.91-2.76v-7.75h-1.7v-1.8h1.7v-3.31h2.18v3.31h3.43v1.8h-3.43Z"/>
        <path class="cls-7" d="m535.94,273.05c.8.42,1.43,1.06,1.88,1.91.46.85.68,1.88.68,3.1v7.75h-2.16v-7.44c0-1.31-.33-2.32-.98-3.01s-1.55-1.04-2.69-1.04-2.07.36-2.75,1.08c-.68.72-1.02,1.77-1.02,3.14v7.27h-2.18v-17.76h2.18v6.48c.43-.67,1.03-1.19,1.79-1.56s1.61-.55,2.56-.55c.99,0,1.89.21,2.69.64Z"/>
        <path class="cls-7" d="m542.08,275.64c.54-1.02,1.29-1.8,2.24-2.36.95-.56,2.01-.84,3.18-.84s2.15.25,3,.74c.85.5,1.48,1.12,1.9,1.87v-2.4h2.21v13.15h-2.21v-2.45c-.43.77-1.08,1.4-1.93,1.91-.86.5-1.85.76-2.99.76s-2.22-.29-3.17-.86c-.94-.58-1.69-1.38-2.23-2.42-.54-1.04-.82-2.22-.82-3.55s.27-2.52.82-3.54Zm9.72.97c-.4-.74-.94-1.3-1.62-1.69-.68-.39-1.43-.59-2.24-.59s-1.56.19-2.23.58c-.67.38-1.21.94-1.61,1.68-.4.74-.6,1.6-.6,2.59s.2,1.88.6,2.63c.4.74.94,1.31,1.61,1.7.67.39,1.42.59,2.23.59s1.56-.2,2.24-.59c.68-.39,1.22-.96,1.62-1.7.4-.74.6-1.61.6-2.6s-.2-1.86-.6-2.59Z"/>
        <path class="cls-7" d="m560.97,274.45v7.75c0,.64.14,1.09.41,1.36.27.26.74.4,1.42.4h1.61v1.85h-1.97c-1.22,0-2.13-.28-2.74-.84-.61-.56-.91-1.48-.91-2.76v-7.75h-1.7v-1.8h1.7v-3.31h2.18v3.31h3.43v1.8h-3.43Z"/>
        <path class="cls-7" d="m411.31,300.45v7.75c0,.64.14,1.09.41,1.36s.74.4,1.42.4h1.61v1.85h-1.97c-1.22,0-2.13-.28-2.74-.84-.61-.56-.91-1.48-.91-2.76v-7.75h-1.7v-1.8h1.7v-3.31h2.18v3.31h3.43v1.8h-3.43Z"/>
        <path class="cls-7" d="m428.71,298.65l-7.92,19.34h-2.26l2.59-6.34-5.3-13.01h2.42l4.13,10.66,4.08-10.66h2.26Z"/>
        <path class="cls-7" d="m435.01,299.19c.86-.5,1.85-.76,2.99-.76s2.23.28,3.18.84c.95.56,1.7,1.35,2.24,2.36.54,1.02.82,2.2.82,3.54s-.27,2.51-.82,3.55-1.29,1.85-2.24,2.42c-.95.58-2.01.86-3.18.86s-2.11-.25-2.96-.76c-.86-.5-1.51-1.13-1.96-1.88v8.66h-2.18v-19.39h2.18v2.42c.43-.75,1.08-1.38,1.93-1.88Zm6.4,3.4c-.4-.74-.94-1.3-1.62-1.68-.68-.38-1.43-.58-2.24-.58s-1.54.2-2.22.59c-.68.39-1.22.96-1.63,1.7-.41.74-.61,1.6-.61,2.58s.2,1.86.61,2.6c.41.74.95,1.31,1.63,1.7.68.39,1.42.59,2.22.59s1.56-.2,2.24-.59c.68-.39,1.22-.96,1.62-1.7.4-.74.6-1.62.6-2.63s-.2-1.86-.6-2.59Z"/>
        <path class="cls-7" d="m447.19,296.08c-.29-.29-.43-.64-.43-1.06s.14-.77.43-1.06.64-.43,1.06-.43.74.14,1.02.43c.28.29.42.64.42,1.06s-.14.77-.42,1.06c-.28.29-.62.43-1.02.43s-.77-.14-1.06-.43Zm2.11,2.57v13.15h-2.18v-13.15h2.18Z"/>
        <path class="cls-7" d="m453.02,301.64c.54-1.02,1.3-1.8,2.27-2.36.97-.56,2.08-.84,3.32-.84,1.62,0,2.95.39,4,1.18,1.05.78,1.74,1.87,2.08,3.26h-2.35c-.22-.8-.66-1.43-1.31-1.9-.65-.46-1.45-.7-2.41-.7-1.25,0-2.26.43-3.02,1.28-.77.86-1.15,2.07-1.15,3.64s.38,2.81,1.15,3.67c.77.86,1.78,1.3,3.02,1.3.96,0,1.76-.22,2.4-.67.64-.45,1.08-1.09,1.32-1.92h2.35c-.35,1.34-1.06,2.42-2.11,3.23-1.06.81-2.38,1.21-3.96,1.21-1.25,0-2.36-.28-3.32-.84-.97-.56-1.72-1.35-2.27-2.38-.54-1.02-.82-2.22-.82-3.6s.27-2.55.82-3.56Z"/>
        <path class="cls-7" d="m467.59,301.64c.54-1.02,1.29-1.8,2.24-2.36.95-.56,2.01-.84,3.18-.84s2.15.25,3,.74c.85.5,1.48,1.12,1.9,1.87v-2.4h2.21v13.15h-2.21v-2.45c-.43.77-1.08,1.4-1.93,1.91-.86.5-1.85.76-2.99.76s-2.22-.29-3.17-.86c-.94-.58-1.69-1.38-2.23-2.42s-.82-2.22-.82-3.55.27-2.52.82-3.54Zm9.72.97c-.4-.74-.94-1.3-1.62-1.69-.68-.39-1.43-.59-2.24-.59s-1.56.19-2.23.58c-.67.38-1.21.94-1.61,1.68-.4.74-.6,1.6-.6,2.59s.2,1.88.6,2.63c.4.74.94,1.31,1.61,1.7.67.39,1.42.59,2.23.59s1.56-.2,2.24-.59c.68-.39,1.22-.96,1.62-1.7.4-.74.6-1.61.6-2.6s-.2-1.86-.6-2.59Z"/>
        <path class="cls-7" d="m486,294.04v17.76h-2.18v-17.76h2.18Z"/>
        <path class="cls-7" d="m491.9,294.04v17.76h-2.18v-17.76h2.18Z"/>
        <path class="cls-7" d="m506.95,298.65l-7.92,19.34h-2.26l2.59-6.34-5.3-13.01h2.42l4.13,10.66,4.08-10.66h2.26Z"/>
        <path class="cls-7" d="m515.61,296.08c-.29-.29-.43-.64-.43-1.06s.14-.77.43-1.06.64-.43,1.06-.43.74.14,1.02.43.42.64.42,1.06-.14.77-.42,1.06-.62.43-1.02.43-.77-.14-1.06-.43Zm2.11,2.57v13.15h-2.18v-13.15h2.18Z"/>
        <path class="cls-7" d="m531.74,299.86c.99.97,1.49,2.36,1.49,4.19v7.75h-2.16v-7.44c0-1.31-.33-2.32-.98-3.01s-1.55-1.04-2.69-1.04-2.07.36-2.75,1.08c-.68.72-1.02,1.77-1.02,3.14v7.27h-2.18v-13.15h2.18v1.87c.43-.67,1.02-1.19,1.76-1.56s1.56-.55,2.46-.55c1.6,0,2.9.48,3.89,1.45Z"/>
        <path class="cls-7" d="m536.8,301.64c.54-1.02,1.3-1.8,2.27-2.36.97-.56,2.08-.84,3.32-.84,1.62,0,2.95.39,4,1.18,1.05.78,1.74,1.87,2.08,3.26h-2.35c-.22-.8-.66-1.43-1.31-1.9-.65-.46-1.45-.7-2.41-.7-1.25,0-2.26.43-3.02,1.28-.77.86-1.15,2.07-1.15,3.64s.38,2.81,1.15,3.67c.77.86,1.78,1.3,3.02,1.3.96,0,1.76-.22,2.4-.67.64-.45,1.08-1.09,1.32-1.92h2.35c-.35,1.34-1.06,2.42-2.11,3.23-1.06.81-2.38,1.21-3.96,1.21-1.25,0-2.36-.28-3.32-.84-.97-.56-1.72-1.35-2.27-2.38-.54-1.02-.82-2.22-.82-3.6s.27-2.55.82-3.56Z"/>
        <path class="cls-7" d="m553.56,294.04v17.76h-2.18v-17.76h2.18Z"/>
        <path class="cls-7" d="m568.94,298.65v13.15h-2.18v-1.94c-.42.67-1,1.2-1.74,1.57-.74.38-1.56.56-2.46.56-1.02,0-1.94-.21-2.76-.64-.82-.42-1.46-1.06-1.93-1.91-.47-.85-.71-1.88-.71-3.1v-7.7h2.16v7.42c0,1.3.33,2.29.98,2.99s1.55,1.04,2.69,1.04,2.09-.36,2.76-1.08,1.01-1.77,1.01-3.14v-7.22h2.18Z"/>
        <path class="cls-7" d="m572.64,301.64c.54-1.02,1.29-1.8,2.24-2.36.95-.56,2.02-.84,3.2-.84,1.02,0,1.98.24,2.86.71.88.47,1.55,1.09,2.02,1.86v-6.96h2.21v17.76h-2.21v-2.47c-.43.78-1.07,1.43-1.92,1.93-.85.5-1.84.76-2.98.76s-2.23-.29-3.18-.86c-.95-.58-1.7-1.38-2.24-2.42s-.82-2.22-.82-3.55.27-2.52.82-3.54Zm9.72.97c-.4-.74-.94-1.3-1.62-1.69-.68-.39-1.43-.59-2.24-.59s-1.56.19-2.23.58c-.67.38-1.21.94-1.61,1.68-.4.74-.6,1.6-.6,2.59s.2,1.88.6,2.63c.4.74.94,1.31,1.61,1.7.67.39,1.42.59,2.23.59s1.56-.2,2.24-.59c.68-.39,1.22-.96,1.62-1.7.4-.74.6-1.61.6-2.6s-.2-1.86-.6-2.59Z"/>
        <path class="cls-7" d="m600.79,306.04h-10.51c.08,1.3.52,2.31,1.33,3.04.81.73,1.79,1.09,2.94,1.09.94,0,1.73-.22,2.36-.66.63-.44,1.08-1.03,1.33-1.76h2.35c-.35,1.26-1.06,2.29-2.11,3.08s-2.37,1.19-3.94,1.19c-1.25,0-2.36-.28-3.35-.84-.98-.56-1.76-1.36-2.32-2.39-.56-1.03-.84-2.23-.84-3.59s.27-2.55.82-3.58c.54-1.02,1.31-1.81,2.29-2.36s2.12-.83,3.4-.83,2.35.27,3.31.82,1.7,1.29,2.22,2.24c.52.95.78,2.03.78,3.23,0,.42-.02.86-.07,1.32Zm-2.74-3.92c-.37-.6-.87-1.06-1.5-1.37-.63-.31-1.33-.47-2.1-.47-1.1,0-2.04.35-2.82,1.06-.78.7-1.22,1.68-1.33,2.93h8.3c0-.83-.18-1.55-.55-2.15Z"/>
        <path class="cls-7" d="m413.6,329.44c-.95.92-2.4,1.38-4.36,1.38h-3.22v6.98h-2.18v-16.73h5.4c1.89,0,3.32.46,4.31,1.37.98.91,1.48,2.09,1.48,3.53s-.48,2.55-1.43,3.47Zm-1.67-1.21c.58-.53.86-1.28.86-2.26,0-2.06-1.18-3.1-3.55-3.1h-3.22v6.14h3.22c1.22,0,2.11-.26,2.69-.79Z"/>
        <path class="cls-7" d="m417.74,327.64c.54-1.02,1.29-1.8,2.24-2.36.95-.56,2.01-.84,3.18-.84s2.15.25,3,.74c.85.5,1.48,1.12,1.9,1.87v-2.4h2.21v13.15h-2.21v-2.45c-.43.77-1.08,1.4-1.93,1.91-.86.5-1.85.76-2.99.76s-2.22-.29-3.17-.86c-.94-.58-1.69-1.38-2.23-2.42-.54-1.04-.82-2.22-.82-3.55s.27-2.52.82-3.54Zm9.72.97c-.4-.74-.94-1.3-1.62-1.69-.68-.39-1.43-.59-2.24-.59s-1.56.19-2.23.58c-.67.38-1.21.94-1.61,1.68s-.6,1.6-.6,2.59.2,1.88.6,2.63.94,1.31,1.61,1.7c.67.39,1.42.59,2.23.59s1.56-.2,2.24-.59c.68-.39,1.22-.96,1.62-1.7.4-.74.6-1.61.6-2.6s-.2-1.86-.6-2.59Z"/>
        <path class="cls-7" d="m437.79,325.04c.71-.42,1.58-.62,2.6-.62v2.26h-.58c-2.45,0-3.67,1.33-3.67,3.98v7.15h-2.18v-13.15h2.18v2.14c.38-.75.93-1.34,1.64-1.75Z"/>
        <path class="cls-7" d="m445.58,326.45v7.75c0,.64.14,1.09.41,1.36.27.26.74.4,1.42.4h1.61v1.85h-1.97c-1.22,0-2.13-.28-2.74-.84-.61-.56-.91-1.48-.91-2.76v-7.75h-1.7v-1.8h1.7v-3.31h2.18v3.31h3.43v1.8h-3.43Z"/>
        <path class="cls-7" d="m467.95,334.08h-7.3l-1.34,3.72h-2.3l6.05-16.63h2.52l6.02,16.63h-2.3l-1.34-3.72Zm-.62-1.78l-3.02-8.45-3.02,8.45h6.05Z"/>
        <path class="cls-7" d="m476.49,334.78l-2.69,6.46h-1.46l1.75-6.46h2.4Z"/>
        <path class="cls-7" d="m495.15,329.44c-.95.92-2.4,1.38-4.36,1.38h-3.22v6.98h-2.18v-16.73h5.4c1.89,0,3.32.46,4.31,1.37.98.91,1.48,2.09,1.48,3.53s-.48,2.55-1.43,3.47Zm-1.67-1.21c.58-.53.86-1.28.86-2.26,0-2.06-1.18-3.1-3.55-3.1h-3.22v6.14h3.22c1.22,0,2.11-.26,2.69-.79Z"/>
        <path class="cls-7" d="m499.29,327.64c.54-1.02,1.29-1.8,2.24-2.36.95-.56,2.01-.84,3.18-.84s2.15.25,3,.74c.85.5,1.48,1.12,1.9,1.87v-2.4h2.21v13.15h-2.21v-2.45c-.43.77-1.08,1.4-1.93,1.91-.86.5-1.85.76-2.99.76s-2.22-.29-3.17-.86c-.94-.58-1.69-1.38-2.23-2.42s-.82-2.22-.82-3.55.27-2.52.82-3.54Zm9.72.97c-.4-.74-.94-1.3-1.62-1.69-.68-.39-1.43-.59-2.24-.59s-1.56.19-2.23.58c-.67.38-1.21.94-1.61,1.68-.4.74-.6,1.6-.6,2.59s.2,1.88.6,2.63c.4.74.94,1.31,1.61,1.7.67.39,1.42.59,2.23.59s1.56-.2,2.24-.59c.68-.39,1.22-.96,1.62-1.7.4-.74.6-1.61.6-2.6s-.2-1.86-.6-2.59Z"/>
        <path class="cls-7" d="m519.34,325.04c.71-.42,1.58-.62,2.6-.62v2.26h-.58c-2.45,0-3.67,1.33-3.67,3.98v7.15h-2.18v-13.15h2.18v2.14c.38-.75.93-1.34,1.64-1.75Z"/>
        <path class="cls-7" d="m527.13,326.45v7.75c0,.64.14,1.09.41,1.36.27.26.74.4,1.42.4h1.61v1.85h-1.97c-1.22,0-2.13-.28-2.74-.84-.61-.56-.91-1.48-.91-2.76v-7.75h-1.7v-1.8h1.7v-3.31h2.18v3.31h3.43v1.8h-3.43Z"/>
        <path class="cls-7" d="m549.66,329.93c.5.4.9.9,1.2,1.49s.44,1.22.44,1.9c0,.85-.22,1.61-.65,2.29-.43.68-1.06,1.22-1.88,1.61-.82.39-1.8.59-2.92.59h-6.24v-16.73h6c1.14,0,2.1.19,2.9.56.8.38,1.4.88,1.8,1.52.4.64.6,1.36.6,2.16,0,.99-.27,1.81-.8,2.46-.54.65-1.24,1.12-2.12,1.4.61.1,1.16.34,1.67.74Zm-7.86-1.63h3.67c1.02,0,1.82-.24,2.38-.72.56-.48.84-1.14.84-1.99s-.28-1.51-.84-1.99c-.56-.48-1.37-.72-2.42-.72h-3.62v5.42Zm6.41,6.94c.61-.51.91-1.22.91-2.14s-.32-1.66-.96-2.2c-.64-.54-1.5-.8-2.57-.8h-3.79v5.9h3.86c1.09,0,1.94-.26,2.54-.77Z"/>
        <path class="cls-7" d="m560.73,327.64c.54-1.02,1.29-1.8,2.24-2.36.95-.56,2.01-.84,3.18-.84s2.15.25,3,.74c.85.5,1.48,1.12,1.9,1.87v-2.4h2.21v13.15h-2.21v-2.45c-.43.77-1.08,1.4-1.93,1.91-.86.5-1.85.76-2.99.76s-2.22-.29-3.17-.86c-.94-.58-1.69-1.38-2.23-2.42-.54-1.04-.82-2.22-.82-3.55s.27-2.52.82-3.54Zm9.72.97c-.4-.74-.94-1.3-1.62-1.69-.68-.39-1.43-.59-2.24-.59s-1.56.19-2.23.58c-.67.38-1.21.94-1.61,1.68-.4.74-.6,1.6-.6,2.59s.2,1.88.6,2.63c.4.74.94,1.31,1.61,1.7.67.39,1.42.59,2.23.59s1.56-.2,2.24-.59c.68-.39,1.22-.96,1.62-1.7.4-.74.6-1.61.6-2.6s-.2-1.86-.6-2.59Z"/>
        <path class="cls-7" d="m587.25,325.86c.99.97,1.49,2.36,1.49,4.19v7.75h-2.16v-7.44c0-1.31-.33-2.32-.98-3.01s-1.55-1.04-2.69-1.04-2.07.36-2.75,1.08c-.68.72-1.02,1.77-1.02,3.14v7.27h-2.18v-13.15h2.18v1.87c.43-.67,1.02-1.19,1.76-1.56s1.56-.55,2.46-.55c1.6,0,2.9.48,3.89,1.45Z"/>
        <path class="cls-7" d="m592.32,327.64c.54-1.02,1.29-1.8,2.24-2.36.95-.56,2.02-.84,3.2-.84,1.02,0,1.98.24,2.86.71.88.47,1.55,1.09,2.02,1.86v-6.96h2.21v17.76h-2.21v-2.47c-.43.78-1.07,1.43-1.92,1.93s-1.84.76-2.98.76-2.23-.29-3.18-.86c-.95-.58-1.7-1.38-2.24-2.42-.54-1.04-.82-2.22-.82-3.55s.27-2.52.82-3.54Zm9.72.97c-.4-.74-.94-1.3-1.62-1.69-.68-.39-1.43-.59-2.24-.59s-1.56.19-2.23.58c-.67.38-1.21.94-1.61,1.68-.4.74-.6,1.6-.6,2.59s.2,1.88.6,2.63c.4.74.94,1.31,1.61,1.7.67.39,1.42.59,2.23.59s1.56-.2,2.24-.59c.68-.39,1.22-.96,1.62-1.7.4-.74.6-1.61.6-2.6s-.2-1.86-.6-2.59Z"/>
        <path class="cls-7" d="m438.67,363.18c-1-.56-1.78-1.36-2.35-2.39-.57-1.03-.85-2.23-.85-3.59s.29-2.53.88-3.56,1.38-1.82,2.39-2.38c1.01-.55,2.14-.83,3.38-.83s2.38.28,3.38.83,1.8,1.34,2.39,2.36c.58,1.02.88,2.22.88,3.58s-.3,2.56-.9,3.59c-.6,1.03-1.41,1.83-2.44,2.39-1.02.56-2.16.84-3.41.84s-2.35-.28-3.35-.84Zm5.56-1.63c.69-.37,1.24-.92,1.67-1.66.42-.74.64-1.63.64-2.69s-.21-1.95-.62-2.69c-.42-.74-.96-1.28-1.63-1.64-.67-.36-1.4-.54-2.18-.54s-1.53.18-2.2.54c-.66.36-1.2.91-1.6,1.64-.4.74-.6,1.63-.6,2.69s.2,1.98.59,2.71c.39.74.92,1.28,1.57,1.64.66.36,1.38.54,2.16.54s1.52-.18,2.21-.55Z"/>
        <path class="cls-7" d="m456.99,352.45h-2.76v11.35h-2.18v-11.35h-1.7v-1.8h1.7v-.94c0-1.47.38-2.55,1.14-3.23.76-.68,1.98-1.02,3.66-1.02v1.82c-.96,0-1.64.19-2.03.56-.39.38-.59,1-.59,1.86v.94h2.76v1.8Z"/>
        <path class="cls-7" d="m462.2,352.45v7.75c0,.64.14,1.09.41,1.36.27.26.74.4,1.42.4h1.61v1.85h-1.97c-1.22,0-2.13-.28-2.74-.84-.61-.56-.91-1.48-.91-2.76v-7.75h-1.7v-1.8h1.7v-3.31h2.18v3.31h3.43v1.8h-3.43Z"/>
        <path class="cls-7" d="m480.2,358.04h-10.51c.08,1.3.52,2.31,1.33,3.04.81.73,1.79,1.09,2.94,1.09.94,0,1.73-.22,2.36-.66.63-.44,1.08-1.03,1.33-1.76h2.35c-.35,1.26-1.06,2.29-2.11,3.08s-2.37,1.19-3.94,1.19c-1.25,0-2.36-.28-3.35-.84-.98-.56-1.76-1.36-2.32-2.39-.56-1.03-.84-2.23-.84-3.59s.27-2.55.82-3.58c.54-1.02,1.31-1.81,2.29-2.36s2.12-.83,3.4-.83,2.35.27,3.31.82,1.7,1.29,2.22,2.24c.52.95.78,2.03.78,3.23,0,.42-.02.86-.07,1.32Zm-2.74-3.92c-.37-.6-.87-1.06-1.5-1.37-.63-.31-1.33-.47-2.1-.47-1.1,0-2.04.35-2.82,1.06-.78.7-1.22,1.68-1.33,2.93h8.3c0-.83-.18-1.55-.55-2.15Z"/>
        <path class="cls-7" d="m493.45,351.86c.99.97,1.49,2.36,1.49,4.19v7.75h-2.16v-7.44c0-1.31-.33-2.32-.98-3.01s-1.55-1.04-2.69-1.04-2.07.36-2.75,1.08c-.68.72-1.02,1.77-1.02,3.14v7.27h-2.18v-13.15h2.18v1.87c.43-.67,1.02-1.19,1.76-1.56s1.56-.55,2.46-.55c1.6,0,2.9.48,3.89,1.45Z"/>
        <path class="cls-7" d="m514.68,355.44c-.95.92-2.4,1.38-4.36,1.38h-3.22v6.98h-2.18v-16.73h5.4c1.89,0,3.32.46,4.31,1.37.98.91,1.48,2.09,1.48,3.53s-.48,2.55-1.43,3.47Zm-1.67-1.21c.58-.53.86-1.28.86-2.26,0-2.06-1.18-3.1-3.55-3.1h-3.22v6.14h3.22c1.22,0,2.11-.26,2.69-.79Z"/>
        <path class="cls-7" d="m518.82,353.64c.54-1.02,1.29-1.8,2.24-2.36.95-.56,2.01-.84,3.18-.84s2.15.25,3,.74c.85.5,1.48,1.12,1.9,1.87v-2.4h2.21v13.15h-2.21v-2.45c-.43.77-1.08,1.4-1.93,1.91-.86.5-1.85.76-2.99.76s-2.22-.29-3.17-.86c-.94-.58-1.69-1.38-2.23-2.42s-.82-2.22-.82-3.55.27-2.52.82-3.54Zm9.72.97c-.4-.74-.94-1.3-1.62-1.69-.68-.39-1.43-.59-2.24-.59s-1.56.19-2.23.58c-.67.38-1.21.94-1.61,1.68-.4.74-.6,1.6-.6,2.59s.2,1.88.6,2.63c.4.74.94,1.31,1.61,1.7.67.39,1.42.59,2.23.59s1.56-.2,2.24-.59c.68-.39,1.22-.96,1.62-1.7.4-.74.6-1.61.6-2.6s-.2-1.86-.6-2.59Z"/>
        <path class="cls-7" d="m538.87,351.04c.71-.42,1.58-.62,2.6-.62v2.26h-.58c-2.45,0-3.67,1.33-3.67,3.98v7.15h-2.18v-13.15h2.18v2.14c.38-.75.93-1.34,1.64-1.75Z"/>
        <path class="cls-7" d="m546.66,352.45v7.75c0,.64.14,1.09.41,1.36.27.26.74.4,1.42.4h1.61v1.85h-1.97c-1.22,0-2.13-.28-2.74-.84-.61-.56-.91-1.48-.91-2.76v-7.75h-1.7v-1.8h1.7v-3.31h2.18v3.31h3.43v1.8h-3.43Z"/>
        <path class="cls-7" d="m569.08,348.1c1.34.68,2.36,1.65,3.07,2.92.71,1.26,1.07,2.75,1.07,4.46s-.36,3.2-1.07,4.45c-.71,1.26-1.74,2.22-3.07,2.88s-2.92,1-4.74,1h-5.21v-16.73h5.21c1.82,0,3.4.34,4.74,1.02Zm.2,12.19c1.14-1.14,1.7-2.75,1.7-4.81s-.57-3.7-1.72-4.87c-1.14-1.17-2.79-1.75-4.93-1.75h-3.02v13.15h3.02c2.16,0,3.81-.57,4.94-1.72Z"/>
      </g>
      <g>
        <line class="cls-5" x1="506.02" y1="217.41" x2="506.02" y2="203.02"/>
        <rect class="cls-7" x="503.71" y="214.99" width="4.62" height="4.62"/>
        <rect class="cls-7" x="503.71" y="200.82" width="4.62" height="4.62"/>
      </g>
    </g>
  </g>
</svg>